<svg width="24" height="24" viewBox="0 0 24 24" fill="none" xmlns="http://www.w3.org/2000/svg">
    <path
        d="M6.6672 7.63698C6.56033 8.77698 6.48533 10.7945 7.15845 11.6532C7.15845 11.6532 6.84158 9.43698 9.6822 6.65635C10.826 5.53698 11.0903 4.01448 10.691 2.8726C10.4641 2.22573 10.0497 1.69135 9.6897 1.31823C9.4797 1.09885 9.64095 0.736978 9.94658 0.750103C11.7953 0.832603 14.7916 1.34635 16.0647 4.54135C16.6235 5.94385 16.6647 7.39323 16.3985 8.86698C16.2297 9.80823 15.6297 11.9007 16.9985 12.1576C17.9753 12.3414 18.4478 11.5651 18.6597 11.0064C18.7478 10.7739 19.0535 10.7157 19.2185 10.9014C20.8685 12.7782 21.0091 14.9889 20.6678 16.892C20.0078 20.5707 16.2822 23.2482 12.581 23.2482C7.9572 23.2482 4.27658 20.6026 3.3222 15.8139C2.93783 13.8807 3.13283 10.0557 6.11408 7.35573C6.33533 7.15323 6.6972 7.33323 6.6672 7.63698Z"
        fill="url(#paint0_radial_544_7844)" />
    <path
        d="M14.2708 14.5162C12.5664 12.3225 13.3295 9.81934 13.7476 8.82184C13.8039 8.69059 13.6539 8.56683 13.5358 8.64746C12.8026 9.14621 11.3008 10.32 10.6014 11.9718C9.6545 14.205 9.722 15.2981 10.2826 16.6331C10.6201 17.4375 10.2283 17.6081 10.0314 17.6381C9.84013 17.6681 9.66388 17.5406 9.52325 17.4075C9.1187 17.0191 8.83041 16.5256 8.69075 15.9825C8.66075 15.8662 8.50888 15.8343 8.4395 15.93C7.9145 16.6556 7.64263 17.82 7.6295 18.6431C7.58825 21.1875 9.69013 23.25 12.2326 23.25C15.437 23.25 17.7714 19.7062 15.9301 16.7437C15.3958 15.8812 14.8933 15.3168 14.2708 14.5162Z"
        fill="url(#paint1_radial_544_7844)" />
    <defs>
        <radialGradient id="paint0_radial_544_7844" cx="0" cy="0" r="1" gradientUnits="userSpaceOnUse"
            gradientTransform="translate(11.6652 23.3065) rotate(-179.751) scale(13.2352 21.7163)">
            <stop offset="0.314" stop-color="#FF9800" />
            <stop offset="0.662" stop-color="#FF6D00" />
            <stop offset="0.972" stop-color="#F44336" />
        </radialGradient>
        <radialGradient id="paint1_radial_544_7844" cx="0" cy="0" r="1" gradientUnits="userSpaceOnUse"
            gradientTransform="translate(12.4089 10.1359) rotate(90.5787) scale(13.8481 10.4217)">
            <stop offset="0.214" stop-color="#FFF176" />
            <stop offset="0.328" stop-color="#FFF27D" />
            <stop offset="0.487" stop-color="#FFF48F" />
            <stop offset="0.672" stop-color="#FFF7AD" />
            <stop offset="0.793" stop-color="#FFF9C4" />
            <stop offset="0.822" stop-color="#FFF8BD" stop-opacity="0.804" />
            <stop offset="0.863" stop-color="#FFF6AB" stop-opacity="0.529" />
            <stop offset="0.91" stop-color="#FFF38D" stop-opacity="0.209" />
            <stop offset="0.941" stop-color="#FFF176" stop-opacity="0" />
        </radialGradient>
    </defs>
</svg>