<svg width="18" height="18" viewBox="0 0 18 18" fill="none" xmlns="http://www.w3.org/2000/svg">
    <path
        d="M3 12.5946V14.3143C3 14.4138 3.03951 14.5092 3.10984 14.5795C3.18016 14.6498 3.27554 14.6893 3.375 14.6893H5.0985C5.19776 14.6893 5.29297 14.6499 5.36325 14.5798L12.4493 7.49384L10.1993 5.24384L3.11025 12.3298C3.03987 12.4 3.00022 12.4952 3 12.5946ZM11.1278 4.31459L13.3778 6.56459L14.4727 5.46959C14.6134 5.32894 14.6923 5.13821 14.6923 4.93934C14.6923 4.74047 14.6134 4.54974 14.4727 4.40909L13.284 3.21959C13.1434 3.07899 12.9526 3 12.7537 3C12.5549 3 12.3641 3.07899 12.2235 3.21959L11.1278 4.31459Z"
        fill="white" />
</svg>