<svg width="24" height="24" viewBox="0 0 24 24" fill="none" xmlns="http://www.w3.org/2000/svg">
    <path
        d="M4.92 0H19.5275C20.0228 0 20.4286 0.418929 20.4286 0.936429V5.6925C20.4286 6.02107 20.2577 6.33321 19.9817 6.4975L16.8554 8.38679L15.5329 9.10636V9.55321H8.96143V9.10143L7.64714 8.38679L4.45589 6.4975C4.3167 6.41428 4.20151 6.29634 4.1216 6.15523C4.04168 6.01412 3.99978 5.85467 4 5.6925V0.936429C4 0.418929 4.41482 0 4.92 0Z"
        fill="#0074BA" />
    <path
        d="M7.64844 8.38679V0H9.78415L9.79237 9.55321L7.64844 8.38679ZM14.7127 9.55321V0H16.8567V8.38679L14.7127 9.55321Z"
        fill="#D3D3D3" />
    <path d="M14.7118 0H9.7832V9.55321H14.7118V0Z" fill="#F8312F" />
    <path
        d="M12.2471 23C16.802 23 20.4943 19.2156 20.4943 14.5475C20.4943 9.87929 16.802 6.09497 12.2471 6.09497C7.69232 6.09497 4 9.87929 4 14.5475C4 19.2156 7.69232 23 12.2471 23Z"
        fill="#FFB02E" />
    <path
        d="M12.2533 21.9812C10.3147 21.9812 8.49115 21.2091 7.12758 19.8045C5.75522 18.3997 4.99096 16.5112 5.00008 14.5473C5.00008 12.5595 5.7558 10.6948 7.12758 9.29017C7.79318 8.6023 8.59031 8.05533 9.47158 7.68178C10.3528 7.30822 11.3002 7.11572 12.2574 7.11572C13.2146 7.11572 14.162 7.30822 15.0432 7.68178C15.9245 8.05533 16.7216 8.6023 17.3872 9.29017C20.2129 12.1898 20.2129 16.9048 17.3872 19.8045C16.0072 21.2091 14.1837 21.9812 12.2533 21.9812ZM12.2451 8.12374C10.6433 8.12374 9.0333 8.74802 7.81758 10.0048C6.63496 11.2202 5.97713 12.8515 5.9858 14.5473C5.9858 16.2641 6.63472 17.8741 7.81758 19.0898C8.39099 19.6852 9.07869 20.1587 9.83948 20.4819C10.6003 20.8051 11.4185 20.9715 12.2451 20.9709C13.9208 20.9709 15.4897 20.3055 16.6726 19.0898C19.1122 16.5845 19.1122 12.5102 16.6726 10.0048C16.0996 9.40882 15.412 8.93492 14.6511 8.61165C13.8902 8.28837 13.0718 8.12241 12.2451 8.12374Z"
        fill="#FCD53F" />
    <path
        d="M12.7476 11.2205L13.4294 12.6334C13.5116 12.7976 13.6676 12.9209 13.8483 12.9455L15.368 13.1755C15.8198 13.2412 16.0087 13.8162 15.6719 14.1448L14.6205 15.1962C14.4644 15.3523 14.4151 15.5823 14.4808 15.7959L14.9655 17.2005C15.1298 17.6687 14.6698 18.1123 14.218 17.9151L12.4601 17.1266C12.3907 17.0941 12.315 17.0772 12.2383 17.0772C12.1617 17.0772 12.086 17.0941 12.0166 17.1266L10.2587 17.9151C9.81513 18.1123 9.34692 17.6687 9.5112 17.2005L9.99584 15.7959C10.0698 15.5823 10.0123 15.3523 9.8562 15.1962L8.80477 14.1448C8.4762 13.8162 8.65692 13.2412 9.1087 13.1755L10.6283 12.9455C10.8091 12.9209 10.9651 12.8059 11.0473 12.6334L11.7291 11.2205C11.9508 10.7934 12.5423 10.7934 12.7476 11.2205Z"
        fill="#6D4534" />
</svg>