<svg width="195" height="162" viewBox="0 0 195 162" fill="none" xmlns="http://www.w3.org/2000/svg">
<circle cx="93.5" cy="78" r="40" fill="#58CC02"/>
<path fill-rule="evenodd" clip-rule="evenodd" d="M106.987 68.5128C107.316 68.8412 107.5 69.2866 107.5 69.751C107.5 70.2154 107.316 70.6608 106.987 70.9892L90.3492 87.6272C90.0208 87.9555 89.5754 88.14 89.111 88.14C88.6466 88.14 88.2012 87.9555 87.8728 87.6272L79.9916 79.7461C79.6726 79.4157 79.4961 78.9733 79.5001 78.5141C79.5041 78.0549 79.6882 77.6157 80.013 77.291C80.3377 76.9662 80.7769 76.782 81.2362 76.7781C81.6954 76.7741 82.1378 76.9506 82.4681 77.2696L89.111 83.9126L104.511 68.5128C104.839 68.1844 105.285 68 105.749 68C106.213 68 106.659 68.1844 106.987 68.5128Z" fill="white"/>
<circle opacity="0.3" cx="165.5" cy="95" r="8" fill="#58CC02"/>
<circle opacity="0.3" cx="100.5" cy="5" r="5" fill="#58CC02"/>
<circle opacity="0.3" cx="5.5" cy="73" r="5" fill="#58CC02"/>
<circle opacity="0.3" cx="36.5927" cy="153.093" r="6.88282" transform="rotate(-11.2432 36.5927 153.093)" fill="#58CC02"/>
<path d="M17.5003 32.27L21.6503 34.78C22.4103 35.24 23.3403 34.56 23.1403 33.7L22.0403 28.98L25.7103 25.8C26.3803 25.22 26.0203 24.12 25.1403 24.05L20.3103 23.64L18.4203 19.18C18.0803 18.37 16.9203 18.37 16.5803 19.18L14.6903 23.63L9.86032 24.04C8.98032 24.11 8.62032 25.21 9.29032 25.79L12.9603 28.97L11.8603 33.69C11.6603 34.55 12.5903 35.23 13.3503 34.77L17.5003 32.27Z" fill="#58CC02"/>
<path d="M186.001 47.2329L188.94 49.0108C189.479 49.3367 190.137 48.855 189.996 48.2458L189.216 44.9025L191.816 42.65C192.291 42.2392 192.036 41.46 191.412 41.4104L187.991 41.12L186.652 37.9608C186.411 37.3871 185.59 37.3871 185.349 37.9608L184.01 41.1129L180.589 41.4033C179.966 41.4529 179.711 42.2321 180.185 42.6429L182.785 44.8954L182.006 48.2387C181.864 48.8479 182.523 49.3296 183.061 49.0037L186.001 47.2329Z" fill="#58CC02"/>
<path d="M121.001 156.233L123.94 158.011C124.479 158.337 125.137 157.855 124.996 157.246L124.216 153.902L126.816 151.65C127.291 151.239 127.036 150.46 126.412 150.41L122.991 150.12L121.652 146.961C121.411 146.387 120.59 146.387 120.349 146.961L119.01 150.113L115.589 150.403C114.966 150.453 114.711 151.232 115.185 151.643L117.785 153.895L117.006 157.239C116.864 157.848 117.523 158.33 118.061 158.004L121.001 156.233Z" fill="#58CC02"/>
</svg>
