<svg width="24" height="24" viewBox="0 0 24 24" fill="none" xmlns="http://www.w3.org/2000/svg">
<path d="M13.3735 7.14481C13.3305 7.17914 13.3006 7.22719 13.2888 7.28093C13.277 7.33467 13.284 7.39083 13.3087 7.44001C13.329 7.47914 13.3596 7.51194 13.3973 7.5348C13.435 7.55766 13.4782 7.5697 13.5223 7.56961C13.5446 7.57312 13.5672 7.57312 13.5895 7.56961C14.1683 7.3863 14.6894 7.05545 15.1015 6.60961C15.4139 6.93865 15.8059 7.18161 16.2396 7.31505C16.6733 7.44849 17.134 7.4679 17.5774 7.37141C18.0207 7.27492 18.4317 7.06579 18.7707 6.7642C19.1097 6.46261 19.3653 6.07873 19.5127 5.64961C19.6661 5.77935 19.8417 5.88018 20.0311 5.94721C20.2579 6.02622 20.4966 6.0652 20.7367 6.06241C21.2558 6.04784 21.7658 5.92179 22.2319 5.69281C22.281 5.66689 22.3196 5.62474 22.3411 5.57354C22.3626 5.52235 22.3657 5.46528 22.3499 5.41205C22.334 5.35883 22.3002 5.31276 22.2542 5.28168C22.2082 5.2506 22.1528 5.23644 22.0975 5.24161C21.4207 5.30881 20.9263 4.23601 20.8975 4.02001C20.8841 3.89596 20.8575 3.77368 20.8183 3.65521C20.754 3.49434 20.654 3.35024 20.5257 3.23384C20.3974 3.11744 20.2442 3.03181 20.0779 2.98346C19.9115 2.93511 19.7364 2.9253 19.5656 2.95478C19.3949 2.98426 19.2332 3.05226 19.0927 3.15361C18.8155 2.8053 18.4547 2.53274 18.0439 2.36128C17.6331 2.18982 17.1856 2.12502 16.743 2.17292C16.3004 2.22082 15.8771 2.37985 15.5125 2.63524C15.1479 2.89062 14.8538 3.23406 14.6575 3.63361C14.4503 3.5582 14.2258 3.5442 14.0109 3.59331C13.796 3.64242 13.5998 3.75254 13.4459 3.91045C13.2921 4.06835 13.1871 4.26733 13.1436 4.48346C13.1001 4.69959 13.1199 4.92368 13.2007 5.12881C13.2548 5.23557 13.3191 5.33684 13.3927 5.43121C13.5151 5.60641 13.9039 6.72001 13.3735 7.14481ZM19.5055 3.46081C19.5865 3.42695 19.6734 3.40951 19.7611 3.40951C19.8489 3.40951 19.9358 3.42695 20.0167 3.46081C20.1758 3.52672 20.3025 3.65259 20.3695 3.81121C20.3955 3.89895 20.4132 3.98895 20.4223 4.08001C20.5638 4.64487 20.8951 5.14395 21.3607 5.49361C20.9799 5.60521 20.5751 5.60521 20.1943 5.49361C19.9769 5.417 19.7856 5.28057 19.6423 5.10001C19.6703 4.85559 19.6646 4.6085 19.6255 4.36561C19.6269 4.35285 19.6269 4.33998 19.6255 4.32721C19.595 4.14665 19.5459 3.96971 19.4791 3.79921C19.4455 3.71761 19.4071 3.63601 19.3663 3.55921C19.4081 3.52036 19.4549 3.48727 19.5055 3.46081ZM19.1767 4.71121C19.1767 4.73521 19.1767 4.75921 19.1767 4.78321C19.1768 4.92671 19.1624 5.06985 19.1335 5.21041C19.0523 5.60806 18.8608 5.97479 18.5808 6.26858C18.3008 6.56237 17.9437 6.77134 17.5504 6.87154C17.1572 6.97174 16.7436 6.95911 16.3572 6.83511C15.9707 6.7111 15.6271 6.48074 15.3655 6.17041C15.305 6.09928 15.2496 6.02388 15.1999 5.94481C15.135 5.8442 15.0788 5.73821 15.0319 5.62801L15.0151 5.59201L14.9959 5.52001H15.0439C15.0935 5.52252 15.1431 5.52252 15.1927 5.52001H15.2839C15.3644 5.51641 15.4446 5.50759 15.5239 5.49361C16.0357 5.38489 16.5104 5.14505 16.9015 4.79761C17.1128 4.62284 17.311 4.43272 17.4943 4.22881C17.6589 4.38969 17.8528 4.51759 18.0655 4.60561C18.3066 4.70725 18.5673 4.75398 18.8287 4.74241C18.9271 4.73912 19.025 4.72788 19.1215 4.70881L19.1767 4.71121ZM14.8807 4.47841C14.8963 4.35864 14.9228 4.24054 14.9599 4.12561C14.9875 4.03932 15.0212 3.95511 15.0607 3.87361C15.2332 3.5009 15.5084 3.18508 15.854 2.96319C16.1995 2.7413 16.6012 2.62254 17.0119 2.62081C17.3994 2.62485 17.7788 2.73132 18.1118 2.92944C18.4448 3.12755 18.7195 3.41024 18.9079 3.74881C18.9485 3.82044 18.9854 3.89414 19.0183 3.96961C19.0471 4.04161 19.0711 4.11361 19.0927 4.18561C19.0927 4.20241 19.0927 4.21921 19.1047 4.23601C19.0258 4.25463 18.9456 4.26668 18.8647 4.27201C18.7849 4.27893 18.7046 4.27893 18.6247 4.27201C18.4426 4.25364 18.2665 4.19713 18.1077 4.10616C17.9489 4.01519 17.811 3.8918 17.7031 3.74401C17.6825 3.71263 17.6549 3.68651 17.6224 3.66775C17.5898 3.64899 17.5534 3.63812 17.5159 3.63601C17.4788 3.63384 17.4418 3.64029 17.4076 3.65487C17.3735 3.66944 17.3432 3.69174 17.3191 3.72001C16.5607 4.62961 15.9199 4.94401 15.4759 5.04001C15.3968 5.05597 15.3165 5.0656 15.2359 5.06881C15.152 5.06729 15.0684 5.05764 14.9863 5.04001L14.8807 5.01361C14.8579 4.83594 14.8579 4.65608 14.8807 4.47841ZM13.6279 4.93441C13.5663 4.77132 13.571 4.59059 13.641 4.43091C13.711 4.27123 13.8406 4.14528 14.0023 4.08001C14.1566 4.01953 14.328 4.01953 14.4823 4.08001C14.3727 4.45976 14.3513 4.85955 14.4199 5.24881C14.4187 5.25516 14.4187 5.26167 14.4199 5.26801C14.4514 5.44707 14.5012 5.6224 14.5687 5.79121C14.6296 5.94105 14.7043 6.08488 14.7919 6.22081C14.5969 6.47309 14.3517 6.68228 14.0719 6.83521C14.1634 6.25514 14.0505 5.66132 13.7527 5.15521C13.7077 5.08443 13.6676 5.01066 13.6327 4.93441H13.6279Z" fill="black"/>
<path d="M8.90801 2.78875C8.37209 2.3568 7.68865 2.15125 7.00336 2.2159C6.31808 2.28055 5.68514 2.6103 5.23946 3.13486C4.79377 3.65941 4.57058 4.3373 4.61746 5.02403C4.66434 5.71076 4.97758 6.35202 5.49041 6.81115C5.96634 7.21861 6.57269 7.44174 7.19921 7.43995C7.27121 7.43995 7.34561 7.43995 7.42001 7.43995C7.93986 7.39687 8.43528 7.20075 8.84377 6.87636C9.25225 6.55196 9.55548 6.11383 9.71519 5.61725C9.87489 5.12068 9.88391 4.58793 9.74111 4.08623C9.59831 3.58453 9.31008 3.13639 8.91281 2.79835L8.90801 2.78875ZM8.84561 6.19915C8.56955 6.52728 8.20205 6.76582 7.78995 6.88437C7.37785 7.00292 6.93978 6.99613 6.53155 6.86486C6.12332 6.73359 5.7634 6.48378 5.49763 6.14724C5.23187 5.81071 5.07229 5.40269 5.03921 4.97515C5.03921 4.95115 5.03921 4.92715 5.03921 4.90315C5.42081 5.07595 6.08321 5.19595 7.07441 4.79515C7.32813 4.69068 7.57432 4.56879 7.81121 4.43035C7.95586 4.6983 8.16595 4.9253 8.42192 5.09021C8.6779 5.25513 8.97144 5.3526 9.27522 5.37355C9.19371 5.6767 9.04711 5.95844 8.84561 6.19915ZM9.35921 4.90315C9.09214 4.89657 8.83359 4.80777 8.61883 4.64885C8.40408 4.48993 8.24358 4.26864 8.15921 4.01515C8.14919 3.97871 8.13071 3.94516 8.10527 3.91722C8.07983 3.88927 8.04815 3.86773 8.01281 3.85435C7.97765 3.84072 7.93976 3.83558 7.90223 3.83933C7.8647 3.84309 7.82859 3.85563 7.79682 3.87595C6.15042 4.92475 5.32721 4.55515 5.07761 4.37995C5.16774 3.91727 5.40676 3.49677 5.75818 3.18261C6.10961 2.86844 6.55416 2.67787 7.02401 2.63995H7.19921C7.49246 2.63719 7.78316 2.69464 8.05331 2.80875C8.32346 2.92286 8.56732 3.0912 8.76979 3.30334C8.97226 3.51549 9.12904 3.76693 9.23043 4.04211C9.33181 4.31729 9.37565 4.61035 9.35921 4.90315Z" fill="black"/>
<path d="M19.8306 7.62478C19.8224 7.61176 19.8127 7.59969 19.8018 7.58878L19.785 7.56718C19.7635 7.54767 19.7393 7.53149 19.713 7.51918C19.6877 7.50956 19.6609 7.50468 19.6338 7.50478H18.4338C18.3702 7.50478 18.3091 7.53006 18.2641 7.57507C18.2191 7.62008 18.1938 7.68112 18.1938 7.74478C18.1938 7.99938 18.0927 8.24356 17.9126 8.4236C17.7326 8.60363 17.4884 8.70478 17.2338 8.70478C16.9792 8.70478 16.735 8.60363 16.555 8.4236C16.375 8.24356 16.2738 7.99938 16.2738 7.74478C16.2738 7.68112 16.2485 7.62008 16.2035 7.57507C16.1585 7.53006 16.0975 7.50478 16.0338 7.50478H14.8338C14.8075 7.50446 14.7814 7.50935 14.757 7.51918C14.7312 7.53093 14.7076 7.54718 14.6874 7.56718L14.6682 7.58878C14.6581 7.59975 14.6492 7.61182 14.6418 7.62478L12.2106 12L9.81061 7.63438C9.80236 7.62136 9.7927 7.60929 9.78181 7.59838L9.76501 7.57678C9.74355 7.55727 9.71928 7.54109 9.69301 7.52878C9.66685 7.51928 9.63924 7.51441 9.61141 7.51437H8.39941C8.33576 7.51437 8.27472 7.53966 8.22971 7.58467C8.1847 7.62968 8.15941 7.69072 8.15941 7.75438C8.15941 8.00898 8.05827 8.25316 7.87824 8.4332C7.6982 8.61323 7.45402 8.71438 7.19941 8.71438C6.94481 8.71438 6.70063 8.61323 6.52059 8.4332C6.34056 8.25316 6.23941 8.00898 6.23941 7.75438C6.23941 7.69072 6.21413 7.62968 6.16912 7.58467C6.12411 7.53966 6.06307 7.51437 5.99941 7.51437H4.79941C4.77234 7.51405 4.74545 7.51894 4.72021 7.52878C4.69395 7.54109 4.66968 7.55727 4.64821 7.57678L4.63141 7.59838C4.62053 7.60929 4.61087 7.62136 4.60261 7.63438L1.41061 13.4088C1.38312 13.4587 1.3743 13.5168 1.38574 13.5727C1.39717 13.6285 1.42811 13.6785 1.47301 13.7136L2.25301 14.316C2.30169 14.3536 2.36294 14.371 2.42412 14.3648C2.4853 14.3585 2.54175 14.329 2.58181 14.2824L4.55941 11.9688V14.1288L5.03941 21.6024C5.04005 21.6656 5.06561 21.726 5.11055 21.7705C5.15549 21.815 5.21618 21.84 5.27941 21.84H6.64261C6.70158 21.8404 6.75863 21.8191 6.8029 21.7802C6.84716 21.7412 6.87554 21.6873 6.88261 21.6288L7.19941 18.8808L7.51861 21.6288C7.52569 21.6873 7.55407 21.7412 7.59833 21.7802C7.6426 21.8191 7.69965 21.8404 7.75862 21.84H9.11941C9.18065 21.8401 9.23961 21.8168 9.28422 21.7748C9.32884 21.7329 9.35574 21.6755 9.35941 21.6144L9.83941 14.1408V11.9808L11.817 14.2944C11.8571 14.341 11.9135 14.3705 11.9747 14.3768C12.0359 14.383 12.0971 14.3656 12.1458 14.328L12.2106 14.2776L12.273 14.328C12.3217 14.3656 12.3829 14.383 12.4441 14.3768C12.5053 14.3705 12.5618 14.341 12.6018 14.2944L14.5794 11.9808V13.1808L13.5858 16.7352C13.5693 16.7931 13.5752 16.8552 13.6023 16.909C13.6295 16.9628 13.6758 17.0044 13.7322 17.0256C14.0732 17.1417 14.421 17.2362 14.7738 17.3088L15.0594 21.6168C15.0637 21.6775 15.0908 21.7343 15.1354 21.7757C15.1799 21.8172 15.2386 21.8401 15.2994 21.84H16.6626C16.7216 21.8404 16.7786 21.8191 16.8229 21.7802C16.8672 21.7412 16.8955 21.6873 16.9026 21.6288L17.2218 18.8808L17.541 21.6288C17.5481 21.6873 17.5765 21.7412 17.6207 21.7802C17.665 21.8191 17.7221 21.8404 17.781 21.84H19.1442C19.2051 21.8401 19.2637 21.8172 19.3082 21.7757C19.3528 21.7343 19.38 21.6775 19.3842 21.6168L19.6794 17.3088C20.0314 17.2361 20.3784 17.1415 20.7186 17.0256C20.775 17.0044 20.8214 16.9628 20.8485 16.909C20.8756 16.8552 20.8815 16.7931 20.865 16.7352L19.8594 13.1688V11.9688L21.8394 14.2824C21.8619 14.3087 21.8899 14.3299 21.9214 14.3444C21.9529 14.3589 21.9871 14.3664 22.0218 14.3664C22.0748 14.3662 22.1263 14.3485 22.1682 14.316L22.9482 13.7136C22.9935 13.6788 23.0249 13.629 23.0368 13.5731C23.0487 13.5173 23.0402 13.459 23.013 13.4088L19.8306 7.62478ZM4.55941 11.232L2.36581 13.7976L1.91941 13.4592L4.55941 8.67598V11.232ZM6.95941 16.7856L6.42901 21.36H5.50501L5.05621 14.3664H6.95941V16.7856ZM8.89382 21.36H7.96981L7.43941 16.7856V14.3664H9.34261L8.89382 21.36ZM9.35941 11.3208V13.8864H5.03941V7.97998H5.77381C5.82619 8.31987 5.99848 8.62979 6.25952 8.85368C6.52056 9.07758 6.85311 9.20065 7.19701 9.20065C7.54092 9.20065 7.87347 9.07758 8.1345 8.85368C8.39554 8.62979 8.56784 8.31987 8.62021 7.97998H9.35941V11.3208ZM15.0594 11.3208V7.97998H15.7938C15.8462 8.31987 16.0185 8.62979 16.2795 8.85368C16.5406 9.07758 16.8731 9.20065 17.217 9.20065C17.5609 9.20065 17.8935 9.07758 18.1545 8.85368C18.4155 8.62979 18.5878 8.31987 18.6402 7.97998H19.3794V12.96H15.0594V11.3208ZM11.5362 13.2144L9.83941 11.232V8.67598L11.9346 12.48L11.5362 13.2144ZM12.8826 13.2144L12.717 13.4112L12.3858 13.7976L12.2106 13.6608L11.949 13.4592L12.2106 12.9792L12.3474 12.7392L12.4794 12.48L14.5746 8.66638V11.232L12.8826 13.2144ZM16.449 21.36H15.525L15.261 17.4C15.7998 17.4912 16.3444 17.5441 16.8906 17.5584L16.449 21.36ZM18.9162 21.36H17.9994L17.5506 17.5584C18.0969 17.544 18.6414 17.4911 19.1802 17.4L18.9162 21.36ZM20.3298 16.644C20.1858 16.6872 19.9722 16.7472 19.6986 16.8096L19.4586 16.86L19.2186 16.9056C18.6511 17.0079 18.0767 17.0665 17.5002 17.0808H16.9458C16.3694 17.0662 15.7949 17.0077 15.2274 16.9056L14.9874 16.86C14.901 16.8432 14.8194 16.8264 14.7474 16.8072C14.4738 16.7472 14.2674 16.6872 14.1162 16.644L14.6154 14.8488L14.6874 14.5896L14.8074 14.1648L14.8266 14.0928L15.0018 13.44H19.4394L19.6218 14.0952L19.641 14.1648L19.761 14.592L19.833 14.8512L20.3298 16.644ZM22.053 13.7976L19.8594 11.232V8.67598L22.4994 13.4592L22.053 13.7976Z" fill="black"/>
</svg>
