<svg width="20" height="20" viewBox="0 0 20 20" fill="none" xmlns="http://www.w3.org/2000/svg">
    <g clip-path="url(#clip0_168_36007)">
        <path
            d="M10 12.5C11.3807 12.5 12.5 11.3807 12.5 10C12.5 8.61929 11.3807 7.5 10 7.5C8.61929 7.5 7.5 8.61929 7.5 10C7.5 11.3807 8.61929 12.5 10 12.5Z"
            stroke="#555555" stroke-width="1.2" stroke-linecap="round" stroke-linejoin="round" />
        <path
            d="M16.1673 12.5C16.0564 12.7513 16.0233 13.0302 16.0723 13.3005C16.1213 13.5708 16.2502 13.8203 16.4423 14.0167L16.4923 14.0667C16.6473 14.2215 16.7702 14.4053 16.8541 14.6076C16.938 14.8099 16.9811 15.0268 16.9811 15.2458C16.9811 15.4649 16.938 15.6817 16.8541 15.8841C16.7702 16.0864 16.6473 16.2702 16.4923 16.425C16.3375 16.58 16.1537 16.7029 15.9514 16.7868C15.7491 16.8706 15.5322 16.9138 15.3131 16.9138C15.0941 16.9138 14.8772 16.8706 14.6749 16.7868C14.4726 16.7029 14.2888 16.58 14.134 16.425L14.084 16.375C13.8876 16.1829 13.6381 16.054 13.3678 16.005C13.0975 15.956 12.8187 15.9891 12.5673 16.1C12.3208 16.2056 12.1106 16.381 11.9626 16.6046C11.8145 16.8282 11.7351 17.0902 11.734 17.3583V17.5C11.734 17.942 11.5584 18.3659 11.2458 18.6785C10.9333 18.9911 10.5093 19.1667 10.0673 19.1667C9.62529 19.1667 9.20137 18.9911 8.88881 18.6785C8.57625 18.3659 8.40065 17.942 8.40065 17.5V17.425C8.3942 17.1492 8.30492 16.8817 8.14441 16.6572C7.9839 16.4328 7.7596 16.2619 7.50065 16.1667C7.2493 16.0557 6.97049 16.0226 6.70016 16.0717C6.42983 16.1207 6.18038 16.2495 5.98398 16.4417L5.93398 16.4917C5.7792 16.6466 5.59538 16.7696 5.39305 16.8534C5.19072 16.9373 4.97384 16.9805 4.75482 16.9805C4.53579 16.9805 4.31891 16.9373 4.11658 16.8534C3.91425 16.7696 3.73044 16.6466 3.57565 16.4917C3.42069 16.3369 3.29776 16.1531 3.21388 15.9507C3.13001 15.7484 3.08684 15.5315 3.08684 15.3125C3.08684 15.0935 3.13001 14.8766 3.21388 14.6743C3.29776 14.4719 3.42069 14.2881 3.57565 14.1333L3.62565 14.0833C3.81776 13.8869 3.94664 13.6375 3.99565 13.3672C4.04467 13.0968 4.01158 12.818 3.90065 12.5667C3.79501 12.3202 3.61961 12.11 3.39604 11.9619C3.17246 11.8139 2.91047 11.7344 2.64232 11.7333H2.50065C2.05862 11.7333 1.6347 11.5577 1.32214 11.2452C1.00958 10.9326 0.833984 10.5087 0.833984 10.0667C0.833984 9.62464 1.00958 9.20071 1.32214 8.88815C1.6347 8.57559 2.05862 8.4 2.50065 8.4H2.57565C2.85148 8.39355 3.11899 8.30426 3.3434 8.14376C3.56781 7.98325 3.73875 7.75894 3.83398 7.5C3.94491 7.24865 3.978 6.96984 3.92899 6.69951C3.87997 6.42918 3.7511 6.17973 3.55898 5.98333L3.50898 5.93333C3.35402 5.77854 3.23109 5.59473 3.14722 5.3924C3.06334 5.19007 3.02017 4.97319 3.02017 4.75416C3.02017 4.53514 3.06334 4.31826 3.14722 4.11593C3.23109 3.9136 3.35402 3.72979 3.50898 3.575C3.66377 3.42004 3.84759 3.29711 4.04992 3.21323C4.25225 3.12936 4.46912 3.08619 4.68815 3.08619C4.90718 3.08619 5.12405 3.12936 5.32638 3.21323C5.52871 3.29711 5.71253 3.42004 5.86732 3.575L5.91732 3.625C6.11372 3.81711 6.36316 3.94599 6.63349 3.995C6.90382 4.04402 7.18264 4.01093 7.43398 3.9H7.50065C7.74712 3.79436 7.95733 3.61896 8.10539 3.39539C8.25346 3.17181 8.33291 2.90982 8.33398 2.64167V2.5C8.33398 2.05797 8.50958 1.63405 8.82214 1.32149C9.1347 1.00893 9.55862 0.833332 10.0007 0.833332C10.4427 0.833332 10.8666 1.00893 11.1792 1.32149C11.4917 1.63405 11.6673 2.05797 11.6673 2.5V2.575C11.6684 2.84315 11.7478 3.10514 11.8959 3.32872C12.044 3.55229 12.2542 3.7277 12.5006 3.83333C12.752 3.94426 13.0308 3.97735 13.3011 3.92834C13.5715 3.87932 13.8209 3.75045 14.0173 3.55833L14.0673 3.50833C14.2221 3.35337 14.4059 3.23044 14.6082 3.14657C14.8106 3.06269 15.0275 3.01952 15.2465 3.01952C15.4655 3.01952 15.6824 3.06269 15.8847 3.14657C16.087 3.23044 16.2709 3.35337 16.4256 3.50833C16.5806 3.66312 16.7035 3.84693 16.7874 4.04926C16.8713 4.25159 16.9145 4.46847 16.9145 4.6875C16.9145 4.90652 16.8713 5.1234 16.7874 5.32573C16.7035 5.52806 16.5806 5.71188 16.4256 5.86666L16.3756 5.91666C16.1835 6.11306 16.0547 6.36251 16.0056 6.63284C15.9566 6.90317 15.9897 7.18198 16.1006 7.43333V7.5C16.2063 7.74647 16.3817 7.95668 16.6053 8.10474C16.8288 8.2528 17.0908 8.33226 17.359 8.33333H17.5006C17.9427 8.33333 18.3666 8.50893 18.6792 8.82149C18.9917 9.13405 19.1673 9.55797 19.1673 10C19.1673 10.442 18.9917 10.8659 18.6792 11.1785C18.3666 11.4911 17.9427 11.6667 17.5006 11.6667H17.4256C17.1575 11.6677 16.8955 11.7472 16.6719 11.8953C16.4484 12.0433 16.273 12.2535 16.1673 12.5V12.5Z"
            stroke="#555555" stroke-width="1.5" stroke-linecap="round" stroke-linejoin="round" />
    </g>
    <defs>
        <clipPath id="clip0_168_36007">
            <rect width="20" height="20" fill="white" />
        </clipPath>
    </defs>
</svg>