<svg width="18" height="19" viewBox="0 0 18 19" fill="none" xmlns="http://www.w3.org/2000/svg">
<g clip-path="url(#clip0_714_13534)">
<path d="M9 2C13.1423 2 16.5 5.35775 16.5 9.5C16.5 13.6423 13.1423 17 9 17C4.85775 17 1.5 13.6423 1.5 9.5C1.5 5.35775 4.85775 2 9 2ZM9 5C8.80109 5 8.61032 5.07902 8.46967 5.21967C8.32902 5.36032 8.25 5.55109 8.25 5.75V9.5C8.25004 9.6989 8.32909 9.88963 8.46975 10.0302L10.7198 12.2802C10.8612 12.4169 11.0507 12.4925 11.2473 12.4908C11.4439 12.489 11.6321 12.4102 11.7711 12.2711C11.9102 12.1321 11.989 11.9439 11.9908 11.7473C11.9925 11.5507 11.9169 11.3612 11.7802 11.2198L9.75 9.1895V5.75C9.75 5.55109 9.67098 5.36032 9.53033 5.21967C9.38968 5.07902 9.19891 5 9 5Z" fill="#BBCDD6"/>
</g>
<defs>
<clipPath id="clip0_714_13534">
<rect width="18" height="18" fill="white" transform="translate(0 0.5)"/>
</clipPath>
</defs>
</svg>
