<svg width="18" height="19" viewBox="0 0 18 19" fill="none" xmlns="http://www.w3.org/2000/svg">
<path d="M9 7.25C8.40326 7.25 7.83097 7.48705 7.40901 7.90901C6.98705 8.33097 6.75 8.90326 6.75 9.5C6.75 10.0967 6.98705 10.669 7.40901 11.091C7.83097 11.5129 8.40326 11.75 9 11.75C9.59674 11.75 10.169 11.5129 10.591 11.091C11.0129 10.669 11.25 10.0967 11.25 9.5C11.25 8.90326 11.0129 8.33097 10.591 7.90901C10.169 7.48705 9.59674 7.25 9 7.25ZM9 13.25C8.00544 13.25 7.05161 12.8549 6.34835 12.1517C5.64509 11.4484 5.25 10.4946 5.25 9.5C5.25 8.50544 5.64509 7.55161 6.34835 6.84835C7.05161 6.14509 8.00544 5.75 9 5.75C9.99456 5.75 10.9484 6.14509 11.6517 6.84835C12.3549 7.55161 12.75 8.50544 12.75 9.5C12.75 10.4946 12.3549 11.4484 11.6517 12.1517C10.9484 12.8549 9.99456 13.25 9 13.25ZM9 3.875C5.25 3.875 2.0475 6.2075 0.75 9.5C2.0475 12.7925 5.25 15.125 9 15.125C12.75 15.125 15.9525 12.7925 17.25 9.5C15.9525 6.2075 12.75 3.875 9 3.875Z" fill="#BBCDD6"/>
</svg>
