<svg width="32" height="32" viewBox="0 0 32 32" fill="none" xmlns="http://www.w3.org/2000/svg">
<g clip-path="url(#clip0_1228_8640)">
<path d="M23 7H9C6.61305 7 4.32387 7.94821 2.63604 9.63604C0.948212 11.3239 0 13.6131 0 16C0 18.3869 0.948212 20.6761 2.63604 22.364C4.32387 24.0518 6.61305 25 9 25H23C25.3869 25 27.6761 24.0518 29.364 22.364C31.0518 20.6761 32 18.3869 32 16C32 13.6131 31.0518 11.3239 29.364 9.63604C27.6761 7.94821 25.3869 7 23 7ZM23 21.375C21.9369 21.375 20.8977 21.0598 20.0138 20.4691C19.1299 19.8785 18.441 19.0391 18.0341 18.0569C17.6273 17.0748 17.5209 15.994 17.7283 14.9514C17.9357 13.9087 18.4476 12.951 19.1993 12.1993C19.951 11.4476 20.9087 10.9357 21.9514 10.7283C22.994 10.5209 24.0748 10.6273 25.0569 11.0341C26.0391 11.441 26.8785 12.1299 27.4691 13.0138C28.0598 13.8977 28.375 14.9369 28.375 16C28.376 16.7061 28.2376 17.4055 27.9679 18.0581C27.6981 18.7107 27.3022 19.3036 26.8029 19.8029C26.3036 20.3022 25.7107 20.6981 25.0581 20.9679C24.4055 21.2376 23.7061 21.376 23 21.375Z" fill="#FF852E"/>
</g>
<defs>
<clipPath id="clip0_1228_8640">
<rect width="32" height="32" fill="white"/>
</clipPath>
</defs>
</svg>
