<svg width="48" height="48" viewBox="0 0 48 48" fill="none" xmlns="http://www.w3.org/2000/svg">
<path d="M44 24C44 23.31 43.44 22.75 42.75 22.75H10.304L23.126 10.14C23.2484 10.0263 23.3468 9.88911 23.4153 9.73668C23.4838 9.58424 23.521 9.41962 23.5248 9.25254C23.5286 9.08547 23.4988 8.91933 23.4373 8.76395C23.3757 8.60858 23.2837 8.46713 23.1665 8.34796C23.0493 8.22878 22.9095 8.13432 22.7552 8.07014C22.6008 8.00597 22.4352 7.97339 22.2681 7.97432C22.101 7.97526 21.9358 8.0097 21.7822 8.07561C21.6286 8.14151 21.4898 8.23754 21.374 8.35802L6.386 23.096L6.359 23.122C6.22911 23.2535 6.13012 23.4123 6.06924 23.5868C6.00835 23.7614 5.98709 23.9473 6.007 24.131C6.03834 24.4317 6.17803 24.7108 6.4 24.916L21.374 39.641C21.4898 39.7615 21.6286 39.8575 21.7822 39.9234C21.9358 39.9893 22.101 40.0238 22.2681 40.0247C22.4352 40.0257 22.6008 39.9931 22.7552 39.9289C22.9095 39.8647 23.0493 39.7703 23.1665 39.6511C23.2837 39.5319 23.3757 39.3905 23.4373 39.2351C23.4988 39.0797 23.5286 38.9136 23.5248 38.7465C23.521 38.5794 23.4838 38.4148 23.4153 38.2624C23.3468 38.1099 23.2484 37.9728 23.126 37.859L10.304 25.249H42.75C42.9141 25.2492 43.0766 25.2169 43.2283 25.1542C43.3799 25.0915 43.5177 24.9995 43.6338 24.8836C43.7499 24.7676 43.842 24.6298 43.9048 24.4782C43.9677 24.3266 44 24.1641 44 24Z" fill="#0C0F25"/>
</svg>
