<svg width="48" height="48" viewBox="0 0 48 48" fill="none" xmlns="http://www.w3.org/2000/svg">
<path d="M4 24C4 23.31 4.56 22.75 5.25 22.75H37.696L24.874 10.14C24.7516 10.0263 24.6532 9.88911 24.5847 9.73668C24.5162 9.58424 24.479 9.41962 24.4752 9.25254C24.4714 9.08547 24.5012 8.91933 24.5627 8.76395C24.6243 8.60858 24.7163 8.46713 24.8335 8.34796C24.9507 8.22878 25.0905 8.13432 25.2448 8.07014C25.3992 8.00597 25.5648 7.97339 25.7319 7.97432C25.899 7.97526 26.0642 8.0097 26.2178 8.07561C26.3714 8.14151 26.5102 8.23754 26.626 8.35802L41.614 23.096L41.641 23.122C41.7709 23.2535 41.8699 23.4123 41.9308 23.5868C41.9916 23.7614 42.0129 23.9473 41.993 24.131C41.9617 24.4317 41.822 24.7108 41.6 24.916L26.626 39.641C26.5102 39.7615 26.3714 39.8575 26.2178 39.9234C26.0642 39.9893 25.899 40.0238 25.7319 40.0247C25.5648 40.0257 25.3992 39.9931 25.2448 39.9289C25.0905 39.8647 24.9507 39.7703 24.8335 39.6511C24.7163 39.5319 24.6243 39.3905 24.5627 39.2351C24.5012 39.0797 24.4714 38.9136 24.4752 38.7465C24.479 38.5794 24.5162 38.4148 24.5847 38.2624C24.6532 38.1099 24.7516 37.9728 24.874 37.859L37.696 25.249H5.25C5.08589 25.2492 4.92337 25.2169 4.77172 25.1542C4.62007 25.0915 4.48226 24.9995 4.36618 24.8836C4.25009 24.7676 4.158 24.6298 4.09517 24.4782C4.03234 24.3266 4 24.1641 4 24Z" fill="#0C0F25"/>
</svg>
