<svg width="32" height="32" viewBox="0 0 32 32" fill="none" xmlns="http://www.w3.org/2000/svg">
<path fill-rule="evenodd" clip-rule="evenodd" d="M14.667 6.26671C11.6003 5.46671 9.06699 5.33337 5.33366 5.33337C4.62641 5.33337 3.94814 5.61433 3.44804 6.11442C2.94794 6.61452 2.66699 7.2928 2.66699 8.00004V22.6667C2.66699 24.1334 4.00033 25.3334 5.33366 25.3334C9.06699 25.3334 11.3337 25.6 14.667 26.4V6.40004V6.26671ZM16.0003 26.4C19.3337 25.6 21.6003 25.3334 25.3337 25.3334C26.0409 25.3334 26.7192 25.0524 27.2193 24.5523C27.7194 24.0522 28.0003 23.374 28.0003 22.6667V8.00004C28.0003 6.66671 26.8003 5.33337 25.3337 5.33337C21.6003 5.33337 19.067 5.46671 16.0003 6.26671V26.4Z" fill="#FF852E"/>
</svg>
