<svg width="32" height="32" viewBox="0 0 32 32" fill="none" xmlns="http://www.w3.org/2000/svg">
<path d="M16 7.33337C17.2377 7.33337 18.4247 7.82504 19.2998 8.70021C20.175 9.57538 20.6667 10.7624 20.6667 12C20.6667 13.2377 20.175 14.4247 19.2998 15.2999C18.4247 16.175 17.2377 16.6667 16 16.6667C14.7623 16.6667 13.5753 16.175 12.7002 15.2999C11.825 14.4247 11.3333 13.2377 11.3333 12C11.3333 10.7624 11.825 9.57538 12.7002 8.70021C13.5753 7.82504 14.7623 7.33337 16 7.33337ZM6.66667 10.6667C7.41333 10.6667 8.10667 10.8667 8.70667 11.2267C8.50667 13.1334 9.06667 15.0267 10.2133 16.5067C9.54667 17.7867 8.21333 18.6667 6.66667 18.6667C5.6058 18.6667 4.58839 18.2453 3.83824 17.4951C3.08809 16.745 2.66667 15.7276 2.66667 14.6667C2.66667 13.6058 3.08809 12.5884 3.83824 11.8383C4.58839 11.0881 5.6058 10.6667 6.66667 10.6667ZM25.3333 10.6667C26.3942 10.6667 27.4116 11.0881 28.1618 11.8383C28.9119 12.5884 29.3333 13.6058 29.3333 14.6667C29.3333 15.7276 28.9119 16.745 28.1618 17.4951C27.4116 18.2453 26.3942 18.6667 25.3333 18.6667C23.7867 18.6667 22.4533 17.7867 21.7867 16.5067C22.9492 15.0059 23.4888 13.115 23.2933 11.2267C23.8933 10.8667 24.5867 10.6667 25.3333 10.6667ZM7.33333 24.3334C7.33333 21.5734 11.2133 19.3334 16 19.3334C20.7867 19.3334 24.6667 21.5734 24.6667 24.3334V26.6667H7.33333V24.3334ZM0 26.6667V24.6667C0 22.8134 2.52 21.2534 5.93333 20.8C5.14667 21.7067 4.66667 22.96 4.66667 24.3334V26.6667H0ZM32 26.6667H27.3333V24.3334C27.3333 22.96 26.8533 21.7067 26.0667 20.8C29.48 21.2534 32 22.8134 32 24.6667V26.6667Z" fill="#FF852E"/>
</svg>
