<svg width="24" height="25" viewBox="0 0 24 25" fill="none" xmlns="http://www.w3.org/2000/svg">
    <mask id="mask0_555_8183" style="mask-type:luminance" maskUnits="userSpaceOnUse" x="0" y="0" width="24" height="25">
        <path d="M0 0.75H24V24.75H0V0.75Z" fill="white" />
    </mask>
    <g mask="url(#mask0_555_8183)">
        <path d="M9.25195 12.3375H14.0463L20.0407 0.75H15.2463L9.25195 12.3375Z" fill="#006CA2" />
        <path d="M12.2498 6.5437L9.85352 11.1787L10.4535 12.3375H14.0479L14.6479 11.1787L12.2498 6.5437Z"
            fill="#2F2F2F" />
        <path
            d="M14.4299 15.1348H9.63367V12.3373H14.428V15.1348H14.4299ZM14.4299 11.1392H9.63367C8.9718 11.1392 8.43555 11.6754 8.43555 12.3373V15.1348C8.43555 15.7967 8.9718 16.3329 9.63367 16.3329H14.428C15.0899 16.3329 15.6262 15.7967 15.6262 15.1348V12.3373C15.6266 12.18 15.5959 12.0242 15.536 11.8787C15.476 11.7333 15.3879 11.6012 15.2768 11.4899C15.1657 11.3786 15.0336 11.2903 14.8883 11.2301C14.743 11.1699 14.5872 11.139 14.4299 11.1392Z"
            fill="#CECED2" />
        <path
            d="M18.0259 18.7312C18.0259 22.0424 15.3427 24.7256 12.0315 24.7256C8.72211 24.7256 6.03711 22.0424 6.03711 18.7312C6.03711 15.4199 8.72023 12.7368 12.0315 12.7368C15.3427 12.7368 18.0259 15.4218 18.0259 18.7312Z"
            fill="#CECED2" />
        <path
            d="M8.01423 17.2725C7.93548 17.2725 7.85673 17.2575 7.78173 17.2237C7.49298 17.1 7.35424 16.7644 7.46674 16.4719C7.46861 16.4681 7.47048 16.4625 7.47048 16.4587C7.47236 16.4494 7.47236 16.4512 7.47798 16.4437C7.74019 15.8204 8.14669 15.2683 8.66401 14.8328C9.18134 14.3972 9.7947 14.0908 10.4536 13.9387C10.5192 13.9237 10.5886 13.9556 10.6186 14.0175C10.6486 14.0794 10.6317 14.1525 10.5774 14.1956C9.70173 14.8912 9.00236 15.8287 8.55611 16.9069C8.55611 16.9087 8.55423 16.9106 8.55423 16.9106C8.55423 16.9125 8.55423 16.9125 8.55236 16.9144C8.49048 17.0587 8.37611 17.1694 8.22986 17.2275C8.16236 17.2594 8.08736 17.2725 8.01423 17.2725Z"
            fill="white" />
        <path d="M14.447 12.3375H9.6507L3.6582 0.75H8.45258L14.447 12.3375Z" fill="#006CA2" />
        <path
            d="M13.8102 20.2272H11.7984C12.1152 20.034 12.6684 19.6497 13.2984 19.0197C13.889 18.4309 14.0859 17.3565 13.3809 16.6497C12.9721 16.2428 12.5071 16.0347 11.999 16.0347C10.8759 16.0347 9.93836 17.0284 9.89898 17.0697C9.87461 17.0959 9.86898 17.1372 9.88961 17.169L10.3959 17.9959C10.409 18.0165 10.4315 18.0315 10.4559 18.0334C10.4802 18.0372 10.5046 18.0297 10.5234 18.0109C10.529 18.0053 11.1402 17.439 11.6765 17.439C11.8921 17.439 12.0609 17.529 12.1921 17.7165C12.299 17.8684 12.3309 18.0372 12.2896 18.2284C12.0852 19.1434 10.2796 20.1784 10.2609 20.1897C10.2485 20.197 10.2382 20.2074 10.231 20.2199C10.2237 20.2324 10.2198 20.2465 10.2196 20.2609V21.3428C10.2196 21.3897 10.2571 21.4253 10.3021 21.4253H13.8121C13.8571 21.4253 13.8946 21.3878 13.8946 21.3428V20.3078C13.8936 20.2861 13.8843 20.2656 13.8686 20.2506C13.8528 20.2356 13.832 20.2272 13.8102 20.2272Z"
            fill="#77A2AD" />
    </g>
</svg>