<svg width="24" height="25" viewBox="0 0 24 25" fill="none" xmlns="http://www.w3.org/2000/svg">
    <g clip-path="url(#clip0_555_8205)">
        <mask id="mask0_555_8205" style="mask-type:luminance" maskUnits="userSpaceOnUse" x="0" y="0" width="24"
            height="25">
            <path d="M0 0.75H24V24.75H0V0.75Z" fill="white" />
        </mask>
        <g mask="url(#mask0_555_8205)">
            <path d="M9.40234 12.3469H14.2005L20.1986 0.75H15.4005L9.40234 12.3469Z" fill="#006CA2" />
            <path d="M12.4001 6.54761L10.002 11.1882L10.602 12.347H14.2001L14.8001 11.1882L12.4001 6.54761Z"
                fill="#2F2F2F" />
            <path
                d="M14.5821 15.1463H9.78398V12.347H14.5821V15.1463ZM14.5821 11.147H9.78398C9.46572 11.147 9.1605 11.2734 8.93546 11.4984C8.71041 11.7235 8.58398 12.0287 8.58398 12.347V15.1463C8.58398 15.8101 9.12023 16.3463 9.78398 16.3463H14.5821C15.2459 16.3463 15.7821 15.8101 15.7821 15.1463V12.347C15.7821 11.6832 15.2459 11.147 14.5821 11.147Z"
                fill="#F79329" />
            <path
                d="M18.1818 18.7445C18.1818 22.0576 15.4968 24.7426 12.1837 24.7426C8.87055 24.7426 6.18555 22.0576 6.18555 18.7445C6.18555 15.4313 8.87055 12.7463 12.1837 12.7463C15.4968 12.7463 18.1818 15.4332 18.1818 18.7445Z"
                fill="#F79329" />
            <path
                d="M8.16267 17.2856C8.08392 17.2856 8.00517 17.2706 7.93017 17.2368C7.64142 17.1131 7.50267 16.7775 7.61517 16.485C7.61705 16.4793 7.61892 16.4756 7.6208 16.4718C7.62267 16.4625 7.62267 16.4643 7.6283 16.4568C7.89082 15.8332 8.29762 15.2807 8.81524 14.8449C9.33286 14.4091 9.94653 14.1024 10.6058 13.95C10.6714 13.935 10.7408 13.9668 10.7708 14.0287C10.8008 14.0906 10.7839 14.1656 10.7295 14.2087C9.85392 14.9043 9.15455 15.8437 8.70642 16.9218C8.70642 16.9237 8.70455 16.9256 8.70455 16.9256C8.70455 16.9275 8.70455 16.9275 8.70267 16.9293C8.6408 17.0737 8.52642 17.1862 8.38017 17.2425C8.3108 17.2725 8.2358 17.2856 8.16267 17.2856Z"
                fill="white" />
            <path d="M14.599 12.3469H9.80086L3.80273 0.75H8.60086L14.599 12.3469Z" fill="#006CA2" />
            <path
                d="M12.1314 21.7219H12.1614C12.5008 21.7163 13.1439 21.6413 13.6352 21.2007C14.0439 20.8332 14.2333 20.3307 14.1564 19.8207C14.0833 19.3463 13.7852 18.9432 13.3296 18.6938C13.7664 18.3657 14.0289 17.955 14.0739 17.5275C14.1189 17.1132 13.9558 16.7007 13.6052 16.3332C13.2527 15.9638 12.7764 15.7688 12.2308 15.7688C11.3889 15.7688 10.6146 16.2132 10.3802 16.5357C10.3596 16.5619 10.3596 16.5994 10.3783 16.6294L10.9014 17.385C10.9146 17.4038 10.9333 17.4169 10.9558 17.4188C10.9764 17.4225 11.0008 17.4169 11.0177 17.4019C11.0233 17.3982 11.5914 16.9313 12.0771 16.9313C12.2983 16.9313 12.4614 17.0288 12.5777 17.2275C12.6733 17.3944 12.6921 17.5463 12.6339 17.6925C12.4746 18.0863 11.7996 18.2869 11.7939 18.2888C11.7602 18.2982 11.7358 18.33 11.7358 18.3657V19.0313C11.7358 19.0688 11.7602 19.1007 11.7977 19.1082C11.8052 19.11 12.4464 19.2694 12.5927 19.6369C12.6508 19.7813 12.6208 19.9444 12.5064 20.1225C12.3846 20.31 12.2008 20.4057 11.9589 20.4057C11.4902 20.4057 10.9164 20.0494 10.6652 19.8263C10.6568 19.8189 10.647 19.8132 10.6364 19.8097C10.6257 19.8061 10.6145 19.8048 10.6033 19.8057C10.5789 19.8075 10.5602 19.8207 10.5471 19.8394L10.0239 20.595C10.0033 20.625 10.0052 20.6644 10.0296 20.6925C10.0614 20.7357 10.9164 21.7219 12.1314 21.7219Z"
                fill="#AE3D09" />
        </g>
    </g>
    <defs>
        <clipPath id="clip0_555_8205">
            <rect width="24" height="24" fill="white" transform="translate(0 0.75)" />
        </clipPath>
    </defs>
</svg>