<svg width="14" height="14" viewBox="0 0 14 14" fill="none" xmlns="http://www.w3.org/2000/svg">
<path d="M6.66667 13.3333C7.54232 13.3345 8.40955 13.1625 9.21854 12.8274C10.0275 12.4923 10.7623 12.0007 11.3807 11.3807C12.0007 10.7623 12.4923 10.0275 12.8274 9.21854C13.1625 8.40955 13.3345 7.54232 13.3333 6.66667C13.3345 5.79103 13.1625 4.9238 12.8274 4.11481C12.4923 3.30583 12.0006 2.57104 11.3807 1.95267C10.7623 1.33268 10.0275 0.841005 9.21854 0.505901C8.40955 0.170796 7.54232 -0.00112898 6.66667 5.57885e-06C5.79103 -0.00111072 4.9238 0.170823 4.11481 0.505926C3.30583 0.84103 2.57104 1.3327 1.95267 1.95267C1.3327 2.57104 0.84103 3.30583 0.505926 4.11481C0.170823 4.9238 -0.00111072 5.79103 5.57885e-06 6.66667C-0.00112898 7.54232 0.170796 8.40955 0.505901 9.21854C0.841005 10.0275 1.33268 10.7623 1.95267 11.3807C2.57104 12.0006 3.30583 12.4923 4.11481 12.8274C4.9238 13.1625 5.79103 13.3345 6.66667 13.3333Z" fill="#2E9AFF"/>
<path d="M4 6.6665L6 8.6665L10 4.6665" stroke="white" stroke-width="1.2" stroke-linecap="round" stroke-linejoin="round"/>
</svg>
