<svg width="24" height="25" viewBox="0 0 24 25" fill="none" xmlns="http://www.w3.org/2000/svg">
<path d="M12 4.37256C12.2652 4.37256 12.5196 4.47792 12.7071 4.66545C12.8946 4.85299 13 5.10734 13 5.37256V11.3726H19C19.2652 11.3726 19.5196 11.4779 19.7071 11.6655C19.8946 11.853 20 12.1073 20 12.3726C20 12.6378 19.8946 12.8921 19.7071 13.0797C19.5196 13.2672 19.2652 13.3726 19 13.3726H13V19.3726C13 19.6378 12.8946 19.8921 12.7071 20.0797C12.5196 20.2672 12.2652 20.3726 12 20.3726C11.7348 20.3726 11.4804 20.2672 11.2929 20.0797C11.1054 19.8921 11 19.6378 11 19.3726V13.3726H5C4.73478 13.3726 4.48043 13.2672 4.29289 13.0797C4.10536 12.8921 4 12.6378 4 12.3726C4 12.1073 4.10536 11.853 4.29289 11.6655C4.48043 11.4779 4.73478 11.3726 5 11.3726H11V5.37256C11 5.10734 11.1054 4.85299 11.2929 4.66545C11.4804 4.47792 11.7348 4.37256 12 4.37256Z" fill="#555555"/>
</svg>
