<svg width="20" height="20" viewBox="0 0 20 20" fill="none" xmlns="http://www.w3.org/2000/svg">
    <path
        d="M17.5833 10.4163L18.75 11.5913L13.3083 17.083L10.4167 14.1663L11.5833 12.9913L13.3083 14.7247L17.5833 10.4163ZM9.16667 3.33302C10.0507 3.33302 10.8986 3.6842 11.5237 4.30933C12.1488 4.93445 12.5 5.78229 12.5 6.66635C12.5 7.5504 12.1488 8.39825 11.5237 9.02337C10.8986 9.64849 10.0507 9.99968 9.16667 9.99968C8.28261 9.99968 7.43476 9.64849 6.80964 9.02337C6.18452 8.39825 5.83333 7.5504 5.83333 6.66635C5.83333 5.78229 6.18452 4.93445 6.80964 4.30933C7.43476 3.6842 8.28261 3.33302 9.16667 3.33302ZM9.16667 4.99968C8.72464 4.99968 8.30072 5.17528 7.98816 5.48784C7.67559 5.8004 7.5 6.22432 7.5 6.66635C7.5 7.10838 7.67559 7.5323 7.98816 7.84486C8.30072 8.15742 8.72464 8.33302 9.16667 8.33302C9.60869 8.33302 10.0326 8.15742 10.3452 7.84486C10.6577 7.5323 10.8333 7.10838 10.8333 6.66635C10.8333 6.22432 10.6577 5.8004 10.3452 5.48784C10.0326 5.17528 9.60869 4.99968 9.16667 4.99968ZM9.16667 10.833C9.73333 10.833 10.4167 10.908 11.175 11.0497L9.78333 12.4413L9.16667 12.4163C6.69167 12.4163 4.08333 13.633 4.08333 14.1663V15.083H9.25L10.8333 16.6663H2.5V14.1663C2.5 11.9497 6.94167 10.833 9.16667 10.833Z"
        fill="#555555" />
</svg>