<svg width="20" height="20" viewBox="0 0 20 20" fill="none" xmlns="http://www.w3.org/2000/svg">
<g clip-path="url(#clip0_1461_76)">
<path d="M8.575 8.09167C8.575 7.71373 8.72513 7.35128 8.99237 7.08404C9.25961 6.8168 9.62207 6.66667 10 6.66667C10.7917 6.66667 11.425 7.30833 11.425 8.09167C11.425 8.88333 10.7917 9.525 10 9.525C9.20833 9.525 8.575 8.88333 8.575 8.09167ZM4.75833 9.40833C4.75833 8.81667 5.24167 8.33333 5.83333 8.33333C6.11844 8.33333 6.39187 8.44659 6.59347 8.64819C6.79507 8.8498 6.90833 9.12323 6.90833 9.40833C6.90833 10 6.425 10.475 5.83333 10.475C5.24167 10.475 4.75833 10 4.75833 9.40833ZM13.0917 9.40833C13.0917 9.12323 13.2049 8.8498 13.4065 8.64819C13.6081 8.44659 13.8816 8.33333 14.1667 8.33333C14.4518 8.33333 14.7252 8.44659 14.9268 8.64819C15.1284 8.8498 15.2417 9.12323 15.2417 9.40833C15.2417 10 14.7583 10.475 14.1667 10.475C13.575 10.475 13.0917 10 13.0917 9.40833ZM16.6667 12.6167V13.3333H3.33333V12.6167C3.33333 11.8333 4.625 11.1917 5.83333 11.1917C6.29167 11.1917 6.75833 11.2833 7.16667 11.4417C7.79167 10.8667 8.91667 10.475 10 10.475C11.0833 10.475 12.2083 10.8667 12.8333 11.4417C13.2417 11.2833 13.7083 11.1917 14.1667 11.1917C15.375 11.1917 16.6667 11.8333 16.6667 12.6167Z" fill="#555555"/>
<rect x="1.6" y="1.6" width="16.8" height="15.8" rx="3.4" stroke="#555555" stroke-width="1.2"/>
</g>
<defs>
<clipPath id="clip0_1461_76">
<rect width="20" height="20" fill="white"/>
</clipPath>
</defs>
</svg>
