<svg width="20" height="21" viewBox="0 0 20 21" fill="none" xmlns="http://www.w3.org/2000/svg">
    <g clip-path="url(#clip0_252_15260)">
        <path d="M3.75 11.75C5.07608 11.75 6.34785 12.2768 7.28553 13.2145C8.22322 14.1521 8.75 15.4239 8.75 16.75"
            stroke="#555555" stroke-width="1.7" stroke-linecap="round" stroke-linejoin="round" />
        <path d="M3.75 8C6.07064 8 8.29624 8.92187 9.93718 10.5628C11.5781 12.2038 12.5 14.4294 12.5 16.75"
            stroke="#555555" stroke-width="1.7" stroke-linecap="round" stroke-linejoin="round" />
        <path d="M3.75 4.25C7.06521 4.25 10.2446 5.56696 12.5888 7.91117C14.933 10.2554 16.25 13.4348 16.25 16.75"
            stroke="#555555" stroke-width="1.5" stroke-linecap="round" stroke-linejoin="round" />
        <path
            d="M4.0625 17.375C4.58027 17.375 5 16.9553 5 16.4375C5 15.9197 4.58027 15.5 4.0625 15.5C3.54473 15.5 3.125 15.9197 3.125 16.4375C3.125 16.9553 3.54473 17.375 4.0625 17.375Z"
            fill="#555555" />
    </g>
    <defs>
        <clipPath id="clip0_252_15260">
            <rect width="20" height="20" fill="white" transform="translate(0 0.5)" />
        </clipPath>
    </defs>
</svg>