<svg width="20" height="21" viewBox="0 0 20 21" fill="none" xmlns="http://www.w3.org/2000/svg">
    <path
        d="M9.28857 6.3525C9.60523 5.78333 9.76357 5.5 10.0002 5.5C10.2369 5.5 10.3952 5.78333 10.7119 6.3525L10.7936 6.49917C10.8836 6.66083 10.9286 6.74083 10.9986 6.79417C11.0694 6.8475 11.1569 6.8675 11.3319 6.90667L11.4902 6.94333C12.1052 7.0825 12.4127 7.15167 12.4861 7.38667C12.5594 7.6225 12.3494 7.8675 11.9302 8.3575L11.8219 8.48417C11.7027 8.62333 11.6427 8.6925 11.6161 8.77917C11.5894 8.86583 11.5986 8.95833 11.6161 9.14417L11.6327 9.31333C11.6961 9.9675 11.7277 10.295 11.5369 10.44C11.3452 10.585 11.0569 10.4525 10.4811 10.1875L10.3327 10.1192C10.1686 10.0442 10.0869 10.0067 10.0002 10.0067C9.91357 10.0067 9.8319 10.0442 9.66773 10.1192L9.5194 10.1875C8.94357 10.4533 8.65523 10.585 8.46357 10.44C8.2719 10.295 8.3044 9.9675 8.36773 9.31333L8.3844 9.14417C8.4019 8.95833 8.41107 8.86583 8.3844 8.77917C8.35773 8.69333 8.29773 8.62333 8.17857 8.48417L8.07023 8.3575C7.65107 7.8675 7.44107 7.6225 7.5144 7.38667C7.58773 7.15167 7.89523 7.0825 8.51023 6.94333L8.66857 6.90667C8.84357 6.8675 8.93107 6.84833 9.0019 6.79417C9.0719 6.74083 9.1169 6.66083 9.2069 6.49917L9.28857 6.3525Z"
        stroke="#555555" stroke-width="1.3" />
    <path
        d="M15.8327 8.00008C15.8327 8.76613 15.6818 9.52467 15.3886 10.2324C15.0955 10.9401 14.6658 11.5832 14.1241 12.1249C13.5825 12.6665 12.9394 13.0962 12.2317 13.3894C11.5239 13.6825 10.7654 13.8334 9.99935 13.8334C9.2333 13.8334 8.47476 13.6825 7.76703 13.3894C7.0593 13.0962 6.41623 12.6665 5.87456 12.1249C5.33288 11.5832 4.9032 10.9401 4.61005 10.2324C4.3169 9.52467 4.16602 8.76613 4.16602 8.00008C4.16602 6.45299 4.7806 4.96925 5.87456 3.87529C6.96852 2.78133 8.45225 2.16675 9.99935 2.16675C11.5464 2.16675 13.0302 2.78133 14.1241 3.87529C15.2181 4.96925 15.8327 6.45299 15.8327 8.00008Z"
        stroke="#555555" stroke-width="1.3" />
    <path
        d="M6.12571 13L5.59488 14.9358C5.07155 16.8458 4.80988 17.8008 5.15905 18.3233C5.28155 18.5067 5.44571 18.6533 5.63655 18.7508C6.17988 19.0275 7.01988 18.59 8.69905 17.715C9.25738 17.4233 9.53738 17.2783 9.83405 17.2467C9.94429 17.2349 10.0555 17.2349 10.1657 17.2467C10.4624 17.2783 10.7415 17.4242 11.3007 17.715C12.9799 18.59 13.8199 19.0275 14.3632 18.7508C14.554 18.6533 14.7182 18.5067 14.8407 18.3233C15.1907 17.8008 14.9282 16.8458 14.4049 14.9358L13.874 13"
        stroke="#555555" stroke-width="1.3" stroke-linecap="round" />
</svg>