<svg width="24" height="24" viewBox="0 0 24 24" fill="none" xmlns="http://www.w3.org/2000/svg">
<path d="M0 1.98438V22.0147H24V1.98438H0ZM1.8413 3.85646H22.1587V20.1426H1.8413V3.85646ZM6.0293 6.20751C5.4563 6.20751 4.97418 6.40275 4.5835 6.79345C4.19282 7.18415 3.99756 7.66626 3.99756 8.23926C3.99756 8.78624 4.19282 9.2548 4.5835 9.6455C4.97418 10.0362 5.4563 10.2314 6.0293 10.2314C6.57626 10.2314 7.04486 10.0362 7.43556 9.6455C7.82626 9.25482 8.0215 8.78622 8.0215 8.23926C8.0215 7.66626 7.82624 7.18415 7.43556 6.79345C7.04488 6.40275 6.57626 6.20751 6.0293 6.20751ZM14.6631 7.19775L10.0532 14.1909L7.60546 12.1592L3.99756 16.8467V18.2148H20.0024V12.7188L14.6631 7.19775Z" fill="black"/>
</svg>
