<svg width="25" height="24" viewBox="0 0 25 24" fill="none" xmlns="http://www.w3.org/2000/svg">
<path d="M20.4009 12.6604C20.2406 12.4779 20.1521 12.2433 20.1521 12.0004C20.1521 11.7575 20.2406 11.5229 20.4009 11.3404L21.6809 9.90038C21.8219 9.74305 21.9095 9.54509 21.9311 9.33489C21.9526 9.12469 21.907 8.91307 21.8009 8.73038L19.8009 5.27038C19.6958 5.0879 19.5358 4.94326 19.3436 4.85707C19.1515 4.77088 18.937 4.74754 18.7309 4.79038L16.8509 5.17038C16.6117 5.21981 16.3626 5.17997 16.1508 5.05838C15.9389 4.93679 15.7789 4.74187 15.7009 4.51038L15.0909 2.68038C15.0238 2.48176 14.896 2.30925 14.7255 2.18723C14.555 2.0652 14.3505 1.99984 14.1409 2.00038H10.1409C9.92281 1.989 9.70701 2.04931 9.52644 2.1721C9.34587 2.29489 9.21045 2.4734 9.14087 2.68038L8.58087 4.51038C8.50287 4.74187 8.34284 4.93679 8.13099 5.05838C7.91913 5.17997 7.67009 5.21981 7.43087 5.17038L5.50087 4.79038C5.30542 4.76276 5.10617 4.79361 4.92822 4.87902C4.75027 4.96444 4.60157 5.10061 4.50087 5.27038L2.50087 8.73038C2.39203 8.91103 2.34309 9.12147 2.36106 9.33161C2.37902 9.54174 2.46296 9.74082 2.60087 9.90038L3.87087 11.3404C4.03119 11.5229 4.11961 11.7575 4.11961 12.0004C4.11961 12.2433 4.03119 12.4779 3.87087 12.6604L2.60087 14.1004C2.46296 14.2599 2.37902 14.459 2.36106 14.6692C2.34309 14.8793 2.39203 15.0897 2.50087 15.2704L4.50087 18.7304C4.60597 18.9129 4.76599 19.0575 4.95812 19.1437C5.15026 19.2299 5.3647 19.2532 5.57087 19.2104L7.45087 18.8304C7.69009 18.781 7.93913 18.8208 8.15099 18.9424C8.36284 19.064 8.52287 19.2589 8.60087 19.4904L9.21087 21.3204C9.28045 21.5274 9.41587 21.7059 9.59644 21.8287C9.77701 21.9515 9.99281 22.0118 10.2109 22.0004H14.2109C14.4205 22.0009 14.625 21.9356 14.7955 21.8135C14.966 21.6915 15.0938 21.519 15.1609 21.3204L15.7709 19.4904C15.8489 19.2589 16.0089 19.064 16.2208 18.9424C16.4326 18.8208 16.6817 18.781 16.9209 18.8304L18.8009 19.2104C19.007 19.2532 19.2215 19.2299 19.4136 19.1437C19.6058 19.0575 19.7658 18.9129 19.8709 18.7304L21.8709 15.2704C21.977 15.0877 22.0226 14.8761 22.0011 14.6659C21.9795 14.4557 21.8919 14.2577 21.7509 14.1004L20.4009 12.6604ZM18.9109 14.0004L19.7109 14.9004L18.4309 17.1204L17.2509 16.8804C16.5307 16.7332 15.7814 16.8555 15.1455 17.2242C14.5095 17.5929 14.031 18.1822 13.8009 18.8804L13.4209 20.0004H10.8609L10.5009 18.8604C10.2707 18.1622 9.79225 17.5729 9.15628 17.2042C8.5203 16.8355 7.77109 16.7132 7.05087 16.8604L5.87087 17.1004L4.57087 14.8904L5.37087 13.9904C5.86283 13.4404 6.1348 12.7283 6.1348 11.9904C6.1348 11.2525 5.86283 10.5404 5.37087 9.99038L4.57087 9.09038L5.85087 6.89038L7.03087 7.13038C7.75109 7.27761 8.5003 7.15526 9.13628 6.78658C9.77225 6.4179 10.2507 5.82854 10.4809 5.13038L10.8609 4.00038H13.4209L13.8009 5.14038C14.031 5.83854 14.5095 6.4279 15.1455 6.79658C15.7814 7.16526 16.5307 7.28761 17.2509 7.14038L18.4309 6.90038L19.7109 9.12038L18.9109 10.0204C18.4244 10.5691 18.1558 11.2771 18.1558 12.0104C18.1558 12.7437 18.4244 13.4516 18.9109 14.0004ZM12.1409 8.00038C11.3497 8.00038 10.5764 8.23498 9.91859 8.67451C9.26079 9.11403 8.74811 9.73874 8.44535 10.4696C8.1426 11.2006 8.06339 12.0048 8.21773 12.7807C8.37207 13.5567 8.75304 14.2694 9.31245 14.8288C9.87186 15.3882 10.5846 15.7692 11.3605 15.9235C12.1364 16.0779 12.9407 15.9987 13.6716 15.6959C14.4025 15.3932 15.0272 14.8805 15.4668 14.2227C15.9063 13.5649 16.1409 12.7915 16.1409 12.0004C16.1409 10.9395 15.7194 9.9221 14.9693 9.17196C14.2192 8.42181 13.2017 8.00038 12.1409 8.00038ZM12.1409 14.0004C11.7453 14.0004 11.3586 13.8831 11.0297 13.6633C10.7008 13.4436 10.4445 13.1312 10.2931 12.7657C10.1417 12.4003 10.1021 11.9982 10.1793 11.6102C10.2565 11.2222 10.447 10.8659 10.7267 10.5862C11.0064 10.3065 11.3627 10.116 11.7507 10.0388C12.1387 9.96164 12.5408 10.0012 12.9062 10.1526C13.2717 10.304 13.584 10.5603 13.8038 10.8892C14.0236 11.2181 14.1409 11.6048 14.1409 12.0004C14.1409 12.5308 13.9302 13.0395 13.5551 13.4146C13.18 13.7897 12.6713 14.0004 12.1409 14.0004Z" fill="#555555"/>
</svg>
