<svg width="25" height="24" viewBox="0 0 25 24" fill="none" xmlns="http://www.w3.org/2000/svg">
<path d="M21.4762 11.4384L13.4503 19.4644C12.467 20.4476 11.1335 21 9.74295 21C8.35243 21 7.01887 20.4476 6.03562 19.4644C5.05238 18.4811 4.5 17.1476 4.5 15.7571C4.5 14.3665 5.05238 13.033 6.03562 12.0497L14.0616 4.02375C14.7171 3.36825 15.6061 3 16.5332 3C17.4602 3 18.3492 3.36825 19.0047 4.02375C19.6602 4.67924 20.0284 5.56829 20.0284 6.4953C20.0284 7.42231 19.6602 8.31135 19.0047 8.96685L10.97 16.9928C10.8077 17.1551 10.615 17.2838 10.403 17.3717C10.191 17.4595 9.96372 17.5047 9.73421 17.5047C9.50471 17.5047 9.27745 17.4595 9.06542 17.3717C8.85338 17.2838 8.66072 17.1551 8.49844 16.9928C8.33615 16.8305 8.20742 16.6379 8.1196 16.4259C8.03177 16.2138 7.98656 15.9866 7.98656 15.7571C7.98656 15.5275 8.03177 15.3003 8.1196 15.0883C8.20742 14.8762 8.33615 14.6836 8.49844 14.5213L15.9131 7.11537" stroke="black" stroke-width="1.5" stroke-linecap="round" stroke-linejoin="round"/>
</svg>
