<svg width="79" height="19" viewBox="0 0 79 19" fill="none" xmlns="http://www.w3.org/2000/svg">
    <path
        d="M3.58984 18.5H0.0507812V1.58984H3.58984V18.5ZM7.46875 18.5V0.640625H10.8789V18.5H7.46875ZM14.4297 18.5V5.57422H17.7344V7.68359H17.9453C18.2109 6.94141 18.6602 6.35938 19.293 5.9375C19.9336 5.50781 20.6758 5.29297 21.5195 5.29297C22.418 5.29297 23.1719 5.50391 23.7812 5.92578C24.3984 6.33984 24.8359 6.92578 25.0938 7.68359H25.3047C25.6094 6.95703 26.1094 6.37891 26.8047 5.94922C27.5 5.51172 28.2969 5.29297 29.1953 5.29297C30.4844 5.29297 31.5039 5.68359 32.2539 6.46484C33.0039 7.24609 33.3789 8.30078 33.3789 9.62891V18.5H29.9688V10.5312C29.9688 9 29.25 8.23438 27.8125 8.23438C27.125 8.23438 26.5742 8.45312 26.1602 8.89062C25.7461 9.32812 25.5391 9.89453 25.5391 10.5898V18.5H22.2578V10.3906C22.2578 9.71094 22.0703 9.18359 21.6953 8.80859C21.3203 8.42578 20.7969 8.23438 20.125 8.23438C19.4609 8.23438 18.9141 8.46875 18.4844 8.9375C18.0547 9.40625 17.8398 10 17.8398 10.7188V18.5H14.4297Z"
        fill="#323232" />
    <path
        d="M40.4219 18.5H37.0352V1.58984H39.9883L47.7695 12.125H47.9805V1.58984H51.3672V18.5H48.4375L40.6328 7.91797H40.4219V18.5ZM66.8359 5.57422V18.5H63.5312V16.4258H63.3203C62.6797 17.9961 61.4219 18.7812 59.5469 18.7812C58.1484 18.7812 57.043 18.3594 56.2305 17.5156C55.4258 16.6641 55.0234 15.4922 55.0234 14V5.57422H58.4336V13.1211C58.4336 14.918 59.2266 15.8164 60.8125 15.8164C61.6484 15.8164 62.293 15.5703 62.7461 15.0781C63.1992 14.5859 63.4258 13.9023 63.4258 13.0273V5.57422H66.8359ZM70.2578 18.5V5.57422H73.5625V7.63672H73.7734C73.9453 6.98047 74.3359 6.4375 74.9453 6.00781C75.5625 5.57812 76.2773 5.36328 77.0898 5.36328C77.6758 5.36328 78.1211 5.41797 78.4258 5.52734V8.63281C78.0664 8.49219 77.5273 8.42188 76.8086 8.42188C75.8633 8.42188 75.1016 8.68359 74.5234 9.20703C73.9531 9.73047 73.668 10.4414 73.668 11.3398V18.5H70.2578Z"
        fill="#FF852E" />
</svg>