<svg width="24" height="24" viewBox="0 0 24 24" fill="none" xmlns="http://www.w3.org/2000/svg">
    <path
        d="M19.5003 4.68742H17.0628V3.5624C17.0629 3.41321 17.0037 3.27009 16.8983 3.16453C16.7929 3.05897 16.6498 2.99961 16.5007 2.99951C16.3515 2.99941 16.2084 3.05858 16.1028 3.164C15.9972 3.26942 15.9379 3.41246 15.9378 3.56165V4.68742H12.5627V3.5624C12.5627 3.48853 12.5482 3.41537 12.52 3.34711C12.4918 3.27884 12.4504 3.2168 12.3982 3.16453C12.346 3.11226 12.284 3.07079 12.2158 3.04247C12.1476 3.01416 12.0744 2.99956 12.0006 2.99951C11.8514 2.99941 11.7083 3.05858 11.6027 3.164C11.4971 3.26942 11.4378 3.41246 11.4377 3.56165V4.68742H8.0626V3.5624C8.06265 3.48853 8.04815 3.41537 8.01993 3.34711C7.99171 3.27884 7.95031 3.2168 7.89811 3.16453C7.84591 3.11226 7.78393 3.07079 7.7157 3.04247C7.64748 3.01416 7.57434 2.99956 7.50047 2.99951C7.35128 2.99941 7.20816 3.05858 7.1026 3.164C6.99704 3.26942 6.93768 3.41246 6.93758 3.56165V4.68742H4.50003C4.10233 4.68742 3.7209 4.84536 3.43961 5.12651C3.15833 5.40765 3.0002 5.789 3 6.1867V19.4995C3 19.8973 3.15804 20.2789 3.43935 20.5602C3.72066 20.8415 4.1022 20.9995 4.50003 20.9995H19.5003C19.8982 20.9995 20.2797 20.8415 20.561 20.5602C20.8423 20.2789 21.0004 19.8973 21.0004 19.4995V6.1867C21.0002 5.789 20.842 5.40765 20.5608 5.12651C20.2795 4.84536 19.898 4.68742 19.5003 4.68742ZM19.8754 19.5002C19.8754 19.5996 19.8359 19.6948 19.7658 19.7651C19.6956 19.8354 19.6004 19.875 19.5011 19.8752H4.50003C4.40057 19.8752 4.30519 19.8357 4.23486 19.7654C4.16453 19.6951 4.12502 19.5997 4.12502 19.5002V6.18745C4.12522 6.08812 4.16482 5.99293 4.23513 5.92277C4.30543 5.8526 4.4007 5.8132 4.50003 5.8132H6.93758V6.93822C6.93748 7.08741 6.99665 7.23052 7.10207 7.33608C7.20749 7.44165 7.35053 7.50101 7.49972 7.50111C7.64891 7.5012 7.79202 7.44204 7.89758 7.33662C8.00315 7.23119 8.06251 7.08816 8.0626 6.93897V5.8132H11.4377V6.93822C11.4376 7.08741 11.4967 7.23052 11.6022 7.33608C11.7076 7.44165 11.8506 7.50101 11.9998 7.50111C12.149 7.5012 12.2921 7.44204 12.3977 7.33662C12.5032 7.23119 12.5626 7.08816 12.5627 6.93897V5.8132H15.9378V6.93822C15.9377 7.08741 15.9968 7.23052 16.1023 7.33608C16.2077 7.44165 16.3507 7.50101 16.4999 7.50111C16.6491 7.5012 16.7922 7.44204 16.8978 7.33662C17.0033 7.23119 17.0627 7.08816 17.0628 6.93897V5.8132H19.5003C19.5995 5.81339 19.6946 5.85289 19.7648 5.92303C19.8349 5.99318 19.8744 6.08825 19.8746 6.18745L19.8754 19.5002Z"
        fill="black" />
    <path
        d="M6.9375 9.75H9.18755V11.4375H6.9375V9.75ZM6.9375 12.5626H9.18755V14.2501H6.9375V12.5626ZM6.9375 15.3751H9.18755V17.0627H6.9375V15.3751ZM10.8751 15.3751H13.1251V17.0627H10.8751V15.3751ZM10.8751 12.5626H13.1251V14.2501H10.8751V12.5626ZM10.8751 9.75H13.1251V11.4375H10.8751V9.75ZM14.8127 15.3751H17.0627V17.0627H14.8127V15.3751ZM14.8127 12.5626H17.0627V14.2501H14.8127V12.5626ZM14.8127 9.75H17.0627V11.4375H14.8127V9.75Z"
        fill="black" />
</svg>