<svg width="18" height="20" viewBox="0 0 18 20" fill="none" xmlns="http://www.w3.org/2000/svg">
    <path fill-rule="evenodd" clip-rule="evenodd"
        d="M13.3333 4.66667V8H15.3333C15.8638 8 16.3725 8.21071 16.7475 8.58579C17.1226 8.96086 17.3333 9.46957 17.3333 10V18C17.3333 18.5304 17.1226 19.0391 16.7475 19.4142C16.3725 19.7893 15.8638 20 15.3333 20H2C1.46957 20 0.960859 19.7893 0.585786 19.4142C0.210714 19.0391 0 18.5304 0 18V10C0 9.46957 0.210714 8.96086 0.585786 8.58579C0.960859 8.21071 1.46957 8 2 8H4V4.66667C4 3.42899 4.49167 2.242 5.36684 1.36683C6.242 0.491665 7.42899 0 8.66667 0C9.90434 0 11.0913 0.491665 11.9665 1.36683C12.8417 2.242 13.3333 3.42899 13.3333 4.66667ZM5.33333 4.66667C5.33333 3.78261 5.68452 2.93477 6.30964 2.30964C6.93476 1.68452 7.78261 1.33333 8.66667 1.33333C9.55072 1.33333 10.3986 1.68452 11.0237 2.30964C11.6488 2.93477 12 3.78261 12 4.66667V8H5.33333V4.66667Z"
        fill="#BFBFBF" />
</svg>