<svg width="20" height="20" viewBox="0 0 20 20" fill="none" xmlns="http://www.w3.org/2000/svg">
<path d="M4.16732 15.8332C3.93121 15.8332 3.73343 15.7532 3.57398 15.5932C3.41454 15.4332 3.33454 15.2354 3.33398 14.9998C3.33398 14.7637 3.41398 14.5659 3.57398 14.4065C3.73398 14.2471 3.93176 14.1671 4.16732 14.1665H5.00065V8.33317C5.00065 7.18039 5.34787 6.15623 6.04232 5.26067C6.73676 4.36512 7.63954 3.77817 8.75065 3.49984V2.9165C8.75065 2.56928 8.87232 2.27428 9.11565 2.0315C9.35898 1.78873 9.65398 1.66706 10.0007 1.6665C10.3479 1.6665 10.6432 1.78817 10.8865 2.0315C11.1298 2.27484 11.2512 2.56984 11.2507 2.9165V3.49984C12.3618 3.77761 13.2645 4.36456 13.959 5.26067C14.6534 6.15678 15.0007 7.18095 15.0007 8.33317V14.1665H15.834C16.0701 14.1665 16.2682 14.2465 16.4282 14.4065C16.5882 14.5665 16.6679 14.7643 16.6673 14.9998C16.6673 15.2359 16.5873 15.434 16.4273 15.594C16.2673 15.754 16.0695 15.8337 15.834 15.8332H4.16732ZM10.0007 18.3332C9.54232 18.3332 9.1501 18.1701 8.82399 17.844C8.49787 17.5179 8.33454 17.1254 8.33398 16.6665H11.6673C11.6673 17.1248 11.5043 17.5173 11.1782 17.844C10.852 18.1707 10.4595 18.3337 10.0007 18.3332Z" fill="black"/>
</svg>
