<svg width="48" height="48" viewBox="0 0 48 48" fill="none" xmlns="http://www.w3.org/2000/svg">
    <path
        d="M12.4689 41.2502C11.8933 41.2491 11.3279 41.0982 10.8283 40.8124C9.70328 40.1749 9.00391 38.9374 9.00391 37.5939V10.4064C9.00391 9.05923 9.70328 7.82548 10.8283 7.18798C11.3398 6.89401 11.9209 6.74284 12.5108 6.75026C13.1007 6.75768 13.6778 6.92343 14.1817 7.23017L37.4177 21.1389C37.9019 21.4426 38.3011 21.8642 38.5778 22.3644C38.8546 22.8645 38.9997 23.4267 38.9997 23.9983C38.9997 24.5699 38.8546 25.1321 38.5778 25.6322C38.3011 26.1324 37.9019 26.554 37.4177 26.8577L14.178 40.7702C13.6622 41.082 13.0715 41.2479 12.4689 41.2502Z"
        fill="white" />
</svg>