<svg width="18" height="12" viewBox="0 0 18 12" fill="none" xmlns="http://www.w3.org/2000/svg">
    <path
        d="M9 8.25C10.2426 8.25 11.25 7.24264 11.25 6C11.25 4.75736 10.2426 3.75 9 3.75C7.75736 3.75 6.75 4.75736 6.75 6C6.75 7.24264 7.75736 8.25 9 8.25Z"
        fill="#777777" />
    <path
        d="M17.2568 5.38828C16.3266 3.94969 15.1196 2.72766 13.7668 1.85402C12.2702 0.886524 10.6179 0.375 8.98875 0.375C7.4939 0.375 6.02402 0.802148 4.61988 1.64449C3.18797 2.50336 1.8907 3.75809 0.763943 5.37352C0.636743 5.55608 0.566688 5.77235 0.562682 5.99482C0.558676 6.2173 0.620898 6.43594 0.741443 6.62297C1.66992 8.07598 2.86488 9.29977 4.1966 10.1614C5.69601 11.1328 7.30969 11.625 8.98875 11.625C10.6309 11.625 12.2868 11.1177 13.777 10.1583C15.1291 9.28746 16.3336 8.06086 17.2603 6.61031C17.3767 6.42763 17.4382 6.21539 17.4376 5.99878C17.437 5.78217 17.3742 5.57029 17.2568 5.38828ZM9.0007 9.375C8.33319 9.375 7.68067 9.17706 7.12565 8.80621C6.57064 8.43536 6.13805 7.90826 5.88261 7.29156C5.62716 6.67486 5.56033 5.99626 5.69055 5.34157C5.82078 4.68688 6.14221 4.08552 6.61422 3.61351C7.08622 3.14151 7.68759 2.82008 8.34227 2.68985C8.99696 2.55962 9.67556 2.62646 10.2923 2.88191C10.909 3.13735 11.4361 3.56993 11.8069 4.12495C12.1778 4.67997 12.3757 5.33249 12.3757 6C12.3747 6.89479 12.0188 7.75264 11.3861 8.38535C10.7533 9.01807 9.89549 9.37398 9.0007 9.375Z"
        fill="#777777" />
</svg>