<svg width="24" height="24" viewBox="0 0 24 24" fill="none" xmlns="http://www.w3.org/2000/svg">
    <path
        d="M12 2C6.47717 2 2 6.47717 2 12C2 17.5228 6.47717 22 12 22C17.5228 22 22 17.5228 22 12C22 6.47717 17.5228 2 12 2ZM18.1283 18.1283C16.6087 19.6433 14.5795 20.5383 12.4361 20.6389C10.2926 20.7395 8.18853 20.0386 6.53372 18.6725C4.87891 17.3065 3.79194 15.3733 3.48462 13.2497C3.17729 11.126 3.67163 8.964 4.8713 7.18491C6.07097 5.40581 7.89003 4.13708 9.97405 3.62593C12.0581 3.11478 14.2577 3.39782 16.1445 4.41992C18.0312 5.44201 19.4698 7.12993 20.18 9.15478C20.8902 11.1796 20.8211 13.3964 19.9861 15.373C19.551 16.403 18.92 17.3387 18.1283 18.1283Z"
        fill="#666666" />
    <path
        d="M7.6667 9.66666H9.33336V11.3333H7.6667V9.66666ZM14.6667 9.66666H16.3334V11.3333H14.6667V9.66666ZM15.4287 14.1333C15.1709 14.7841 14.7229 15.342 14.1432 15.7345C13.5636 16.1269 12.8792 16.3356 12.1792 16.3333H11.8209C11.1209 16.3356 10.4364 16.1269 9.85674 15.7345C9.27707 15.3421 8.82909 14.7841 8.5712 14.1333L8.51791 14H7.08203L7.33336 14.6284C7.69211 15.5252 8.31136 16.294 9.11124 16.8356C9.91111 17.3772 10.8549 17.6666 11.8209 17.6667H12.1792C13.1452 17.6666 14.089 17.3772 14.8888 16.8356C15.6887 16.294 16.308 15.5252 16.6667 14.6284L16.918 14H15.482L15.4287 14.1333Z"
        fill="#666666" />
</svg>