<svg width="24" height="25" viewBox="0 0 24 25" fill="none" xmlns="http://www.w3.org/2000/svg">
    <path
        d="M12 22C10.22 22 8.47991 21.4722 6.99987 20.4832C5.51983 19.4943 4.36628 18.0887 3.68509 16.4442C3.0039 14.7996 2.82567 12.99 3.17294 11.2442C3.5202 9.49836 4.37737 7.89471 5.63604 6.63604C6.89471 5.37737 8.49836 4.5202 10.2442 4.17294C11.99 3.82567 13.7996 4.0039 15.4442 4.68509C17.0887 5.36628 18.4943 6.51983 19.4832 7.99987C20.4722 9.47991 21 11.22 21 13C21 15.387 20.0518 17.6761 18.364 19.364C16.6761 21.0518 14.387 22 12 22ZM12 5.28572C10.4743 5.28572 8.98278 5.73815 7.71418 6.58581C6.44557 7.43347 5.45681 8.63827 4.87293 10.0479C4.28906 11.4575 4.13629 13.0086 4.43395 14.505C4.7316 16.0014 5.46632 17.376 6.54518 18.4548C7.62404 19.5337 8.9986 20.2684 10.495 20.5661C11.9914 20.8637 13.5425 20.7109 14.9521 20.1271C16.3617 19.5432 17.5665 18.5544 18.4142 17.2858C19.2619 16.0172 19.7143 14.5257 19.7143 13C19.7143 10.954 18.9015 8.99189 17.4548 7.54518C16.0081 6.09847 14.046 5.28572 12 5.28572Z"
        fill="#929292" />
    <path d="M14.951 16.8572L11.3574 13.2636V7.21436H12.6431V12.7301L15.8574 15.9508L14.951 16.8572Z" fill="#929292" />
</svg>