<svg width="93" height="65" viewBox="0 0 93 65" fill="none" xmlns="http://www.w3.org/2000/svg">
<path d="M90.8608 10.1505C89.7915 6.153 86.6515 3.01152 82.6562 1.94144C75.4221 5.81145e-07 46.4005 0 46.4005 0C46.4005 0 17.3792 5.81145e-07 10.1449 1.94144C6.14958 3.01152 3.00985 6.153 1.94036 10.1505C5.80823e-07 17.3889 0 32.5 0 32.5C0 32.5 5.80823e-07 47.6112 1.94036 54.8496C3.00985 58.8471 6.14958 61.9885 10.1449 63.0584C17.3792 65 46.4005 65 46.4005 65C46.4005 65 75.4221 65 82.6562 63.0584C86.6515 61.9885 89.7915 58.8471 90.8608 54.8496C92.8013 47.6112 92.8013 32.5 92.8013 32.5C92.8013 32.5 92.7935 17.3889 90.8608 10.1505Z" fill="#FF0000"/>
<path d="M37.1116 46.4276L61.221 32.5013L37.1116 18.5748V46.4276Z" fill="white"/>
</svg>
