<svg width="20" height="20" viewBox="0 0 20 20" fill="none" xmlns="http://www.w3.org/2000/svg">
<path d="M15.0333 6.4074C14.9636 6.3371 14.8806 6.2813 14.7892 6.24323C14.6979 6.20515 14.5998 6.18555 14.5008 6.18555C14.4018 6.18555 14.3038 6.20515 14.2124 6.24323C14.121 6.2813 14.038 6.3371 13.9683 6.4074L8.38082 12.0024L6.03332 9.6474C5.96093 9.57747 5.87547 9.52248 5.78183 9.48558C5.68819 9.44868 5.58819 9.43058 5.48756 9.43232C5.38692 9.43406 5.28762 9.45561 5.19531 9.49573C5.103 9.53585 5.0195 9.59375 4.94957 9.66615C4.87964 9.73854 4.82465 9.82399 4.78775 9.91763C4.75085 10.0113 4.73275 10.1113 4.73449 10.2119C4.73623 10.3125 4.75778 10.4118 4.7979 10.5042C4.83802 10.5965 4.89593 10.68 4.96832 10.7499L7.84832 13.6299C7.91804 13.7002 8.00099 13.756 8.09238 13.7941C8.18378 13.8321 8.28181 13.8517 8.38082 13.8517C8.47983 13.8517 8.57786 13.8321 8.66925 13.7941C8.76064 13.756 8.84359 13.7002 8.91332 13.6299L15.0333 7.5099C15.1094 7.43966 15.1702 7.35443 15.2118 7.25955C15.2533 7.16468 15.2748 7.06222 15.2748 6.95865C15.2748 6.85507 15.2533 6.75262 15.2118 6.65774C15.1702 6.56287 15.1094 6.47763 15.0333 6.4074Z" fill="#2E9AFF"/>
<rect x="0.5" y="0.5" width="19" height="19" rx="3.5" stroke="#2E9AFF"/>
</svg>
