<svg width="40" height="40" viewBox="0 0 40 40" fill="none" xmlns="http://www.w3.org/2000/svg">
<path d="M35.2969 9.11099L20.2969 4.11099C20.1042 4.04666 19.8958 4.04666 19.7031 4.11099L4.70313 9.11099C4.51659 9.17327 4.35436 9.29262 4.23939 9.45218C4.12442 9.61173 4.06254 9.8034 4.0625 10.0001V22.5001C4.0625 22.7487 4.16127 22.9872 4.33709 23.163C4.5129 23.3388 4.75136 23.4376 5 23.4376C5.24864 23.4376 5.4871 23.3388 5.66291 23.163C5.83873 22.9872 5.9375 22.7487 5.9375 22.5001V11.3001L11.9812 13.3157C11.2191 14.442 10.7026 15.7162 10.4655 17.0553C10.2283 18.3945 10.2758 19.7685 10.6048 21.0881C10.9337 22.4077 11.5368 23.6432 12.3749 24.7143C13.2129 25.7854 14.2671 26.668 15.4688 27.3047C12.4609 28.3251 9.84375 30.3657 7.96875 33.2422C7.86097 33.4487 7.83388 33.6878 7.89275 33.9131C7.95162 34.1384 8.09223 34.3338 8.28722 34.4611C8.4822 34.5884 8.71759 34.6386 8.94755 34.6019C9.17751 34.5652 9.38559 34.4442 9.53125 34.2626C11.9484 30.561 15.7625 28.4376 20 28.4376C24.2375 28.4376 28.0516 30.561 30.4688 34.2626C30.6135 34.4481 30.8228 34.5724 31.055 34.6108C31.2872 34.6492 31.5253 34.5988 31.7221 34.4697C31.9189 34.3406 32.0599 34.1423 32.1172 33.914C32.1745 33.6857 32.1438 33.4443 32.0312 33.2376C30.1562 30.3657 27.5422 28.3251 24.5312 27.3001C25.7323 26.6626 26.7857 25.7795 27.6229 24.7081C28.4602 23.6367 29.0625 22.401 29.3907 21.0815C29.719 19.762 29.7657 18.3882 29.528 17.0494C29.2903 15.7106 28.7734 14.4368 28.0109 13.311L35.2969 10.8891C35.4833 10.8267 35.6454 10.7073 35.7603 10.5478C35.8751 10.3883 35.9369 10.1966 35.9369 10.0001C35.9369 9.80347 35.8751 9.61185 35.7603 9.45231C35.6454 9.29276 35.4833 9.17336 35.2969 9.11099ZM27.8125 18.7501C27.8131 19.9949 27.5161 21.2219 26.9464 22.3288C26.3767 23.4357 25.5507 24.3904 24.5373 25.1134C23.5239 25.8364 22.3523 26.3068 21.1203 26.4853C19.8883 26.6638 18.6314 26.5453 17.4545 26.1397C16.2775 25.7341 15.2145 25.053 14.3541 24.1534C13.4936 23.2537 12.8606 22.1615 12.5078 20.9676C12.155 19.7738 12.0926 18.5129 12.3258 17.2901C12.559 16.0672 13.081 14.9178 13.8484 13.9376L19.7031 15.8891C19.8958 15.9534 20.1042 15.9534 20.2969 15.8891L26.1516 13.9376C27.2294 15.31 27.8144 17.005 27.8125 18.7501ZM20 14.0126L7.96875 10.0001L20 5.98755L32.0312 10.0001L20 14.0126Z" fill="#929292"/>
</svg>
