<svg width="24" height="24" viewBox="0 0 24 24" fill="none" xmlns="http://www.w3.org/2000/svg">
    <path d="M11.9992 2C7.76588 2 4.16589 4.63333 2.69922 8.33333H21.2992C19.8326 4.63333 16.2326 2 11.9992 2Z"
        fill="#42ADE2" />
    <path d="M11.9992 22C16.2326 22 19.8326 19.3667 21.2992 15.6667H2.69922C4.16589 19.3667 7.76588 22 11.9992 22Z"
        fill="#83BF4F" />
    <path
        d="M22 12C22 10.9667 21.8333 9.93333 21.5333 9H2.46667C2.16667 9.93333 2 10.9667 2 12C2 13.0333 2.16667 14.0667 2.46667 15H21.5333C21.8333 14.0667 22 13.0333 22 12Z"
        fill="white" />
    <path
        d="M21.3008 8.33333C21.3341 8.43333 21.4008 8.56666 21.4341 8.66666C21.4674 8.76666 21.5008 8.89999 21.5341 8.99999"
        fill="#C94747" />
    <path
        d="M21.4335 8.66666C21.4001 8.56666 21.3335 8.43333 21.3001 8.33333H2.70013C2.6668 8.43333 2.60013 8.56666 2.5668 8.66666C2.53346 8.76666 2.50013 8.89999 2.4668 8.99999H21.5335C21.5001 8.89999 21.4668 8.76666 21.4335 8.66666ZM2.5668 15.3333C2.60013 15.4333 2.6668 15.5667 2.70013 15.6667H21.3001C21.3335 15.5667 21.4001 15.4333 21.4335 15.3333C21.4668 15.2333 21.5001 15.1 21.5335 15H2.4668C2.50013 15.1 2.53346 15.2333 2.5668 15.3333Z"
        fill="#C94747" />
    <path
        d="M8.13333 7.1C7.33333 7.1 6.7 6.46667 6.7 5.66667C6.7 4.86667 7.33333 4.23333 8.13333 4.23333C8.33333 4.23333 8.5 4.26667 8.66667 4.33333C8.4 4.13333 8.03333 4 7.66667 4C6.73333 4 6 4.73333 6 5.66667C6 6.6 6.73333 7.33333 7.66667 7.33333C8.03333 7.33333 8.4 7.2 8.66667 7C8.5 7.06667 8.33333 7.1 8.13333 7.1ZM9.56667 6.4L9.7 6.76667H10.0667L9.76667 6.96667L9.86667 7.33333L9.56667 7.1L9.26667 7.33333L9.4 6.96667L9.1 6.76667H9.46667L9.56667 6.4ZM11 6.4L11.1 6.76667H11.5L11.2 6.96667L11.3 7.33333L11 7.1L10.7 7.33333L10.8 6.96667L10.5 6.76667H10.8667L11 6.4ZM12.4333 6.4L12.5333 6.76667H12.9L12.6 6.96667L12.7333 7.33333L12.4333 7.1L12.1 7.33333L12.2333 6.96667L11.9333 6.76667H12.3L12.4333 6.4ZM13.8333 6.4L13.9667 6.76667H14.3333L14.0333 6.96667L14.1333 7.33333L13.8333 7.1L13.5333 7.33333L13.6333 6.96667L13.3333 6.76667H13.7333L13.8333 6.4ZM15.2667 6.4L15.3667 6.76667H15.7667L15.4333 6.96667L15.5667 7.33333L15.2667 7.1L14.9667 7.33333L15.0667 6.96667L14.7667 6.76667H15.1333L15.2667 6.4ZM11 5.2L11.1 5.56667H11.5L11.2 5.76667L11.3 6.13333L11 5.9L10.7 6.13333L10.8 5.76667L10.5 5.56667H10.8667L11 5.2ZM12.4333 5.2L12.5333 5.56667H12.9L12.6 5.76667L12.7333 6.13333L12.4333 5.9L12.1 6.13333L12.2333 5.76667L11.9333 5.56667H12.3L12.4333 5.2ZM13.8333 5.2L13.9667 5.56667H14.3333L14.0333 5.76667L14.1333 6.13333L13.8333 5.9L13.5333 6.13333L13.6333 5.76667L13.3333 5.56667H13.7333L13.8333 5.2ZM15.2667 5.2L15.3667 5.56667H15.7667L15.4333 5.76667L15.5667 6.13333L15.2667 5.9L14.9667 6.13333L15.0667 5.76667L14.7667 5.56667H15.1333L15.2667 5.2ZM12.4333 4L12.5333 4.36667H12.9L12.6 4.56667L12.7333 4.93333L12.4333 4.7L12.1 4.93333L12.2333 4.56667L11.9333 4.36667H12.3L12.4333 4ZM13.8333 4L13.9667 4.36667H14.3333L14.0333 4.56667L14.1333 4.93333L13.8333 4.7L13.5333 4.93333L13.6333 4.56667L13.3333 4.36667H13.7333L13.8333 4ZM15.2667 4L15.3667 4.36667H15.7667L15.4333 4.56667L15.5667 4.93333L15.2667 4.7L14.9667 4.93333L15.0667 4.56667L14.7667 4.36667H15.1333L15.2667 4Z"
        fill="white" />
</svg>